<?xml version="1.0" encoding="UTF-8"?>
<!-- Generator: Adobe Illustrator 25.3.0, SVG Export Plug-In . SVG Version: 6.00 Build 0)  -->
<svg xmlns="http://www.w3.org/2000/svg" xmlns:xlink="http://www.w3.org/1999/xlink" version="1.1" id="Layer_1" x="0px" y="0px" viewBox="0 0 1000 600" style="enable-background:new 0 0 1000 600;" xml:space="preserve">
<style type="text/css">
	.st0{fill:#E7F0F9;}
	.st1{fill:url(#SVGID_1_);}
	.st2{fill:url(#SVGID_2_);}
	.st3{fill:url(#SVGID_3_);}
	.st4{opacity:0.2;}
	.st5{fill:#FFFFFF;}
	.st6{opacity:0.5;}
	.st7{fill:url(#SVGID_4_);}
	.st8{fill:url(#SVGID_5_);}
	.st9{fill:url(#SVGID_6_);}
	.st10{clip-path:url(#SVGID_8_);}
	.st11{fill:#0B132B;}
	.st12{fill:none;stroke:#D9E6ED;stroke-miterlimit:10;}
	.st13{fill:#1C2541;}
	.st14{fill:#587CFF;}
	.st15{fill:#444444;}
	.st16{fill:#FF587C;}
</style>
<g id="Layer_2_1_">
	<g>
		<rect class="st0" width="1000" height="600"></rect>
	</g>
</g>
<g>
	
		<linearGradient id="SVGID_1_" gradientUnits="userSpaceOnUse" x1="111.3835" y1="340.7081" x2="555.9498" y2="340.7081" gradientTransform="matrix(1.2 0 0 -1.2 -40.4 742.11)">
		<stop offset="0" style="stop-color:#F5F8FC"></stop>
		<stop offset="1" style="stop-color:#E3EEF9"></stop>
	</linearGradient>
	<circle class="st1" cx="360" cy="333.3" r="266.7"></circle>
	
		<linearGradient id="SVGID_2_" gradientUnits="userSpaceOnUse" x1="152.6207" y1="341.7933" x2="512.5421" y2="341.7933" gradientTransform="matrix(1.2 0 0 -1.2 -40.4 742.11)">
		<stop offset="0" style="stop-color:#DEE9F6"></stop>
		<stop offset="1" style="stop-color:#BBD5EF"></stop>
	</linearGradient>
	<circle class="st2" cx="358.7" cy="332" r="216"></circle>
	
		<linearGradient id="SVGID_3_" gradientUnits="userSpaceOnUse" x1="206.1567" y1="341.7933" x2="459.0061" y2="341.7933" gradientTransform="matrix(1.2 0 0 -1.2 -40.4 742.11)">
		<stop offset="0" style="stop-color:#ABC8E8"></stop>
		<stop offset="1" style="stop-color:#86BCE5"></stop>
	</linearGradient>
	<circle class="st3" cx="358.7" cy="332" r="151.7"></circle>
	<g class="st4">
		<path class="st5" d="M93.3,333.3C93.3,480.6,212.6,600,360,600c72.3,0,137.8-28.9,186-75.5c-16.9-59.9-45.1-118.3-95.5-153.7    c-41.5-29.1-96.4-41.7-126.1-82.7c-25.4-34.9-25.8-82-20-124.8c4.1-30.2,8.9-66.2-13.7-86.4c-0.2-0.2-0.7-0.4-1.1-0.9    C176.4,106.7,93.3,210.2,93.3,333.3z"></path>
	</g>
</g>
<g class="st6">
	
		<linearGradient id="SVGID_4_" gradientUnits="userSpaceOnUse" x1="496.1948" y1="467.2162" x2="798.6125" y2="467.2162" gradientTransform="matrix(1.2 0 0 -1.2 -40.4 742.11)">
		<stop offset="0" style="stop-color:#F5F8FC"></stop>
		<stop offset="1" style="stop-color:#E3EEF9"></stop>
	</linearGradient>
	<circle class="st7" cx="736.5" cy="181.5" r="181.5"></circle>
	
		<linearGradient id="SVGID_5_" gradientUnits="userSpaceOnUse" x1="524.2465" y1="467.9543" x2="769.0842" y2="467.9543" gradientTransform="matrix(1.2 0 0 -1.2 -40.4 742.11)">
		<stop offset="0" style="stop-color:#DEE9F6"></stop>
		<stop offset="1" style="stop-color:#BBD5EF"></stop>
	</linearGradient>
	<circle class="st8" cx="735.6" cy="180.6" r="146.9"></circle>
	
		<linearGradient id="SVGID_6_" gradientUnits="userSpaceOnUse" x1="560.6646" y1="467.9543" x2="732.6662" y2="467.9543" gradientTransform="matrix(1.2 0 0 -1.2 -40.4 742.11)">
		<stop offset="0" style="stop-color:#ABC8E8"></stop>
		<stop offset="1" style="stop-color:#86BCE5"></stop>
	</linearGradient>
	<circle class="st9" cx="735.6" cy="180.6" r="103.2"></circle>
	<g class="st4">
		<path class="st5" d="M555,181.5c0,100.2,81.2,181.5,181.5,181.5c49.2,0,93.8-19.6,126.5-51.4c-11.5-40.7-30.7-80.5-65-104.5    c-28.2-19.8-65.6-28.3-85.8-56.3C695,127,694.7,94.9,698.7,65.8c2.8-20.5,6.1-45-9.3-58.8c-0.1-0.1-0.4-0.3-0.7-0.6    C611.6,27.3,555,97.7,555,181.5z"></path>
	</g>
</g>
<g>
	<defs>
		<rect id="SVGID_7_" width="1000" height="600"></rect>
	</defs>
	<clipPath id="SVGID_8_">
		<use xlink:href="#SVGID_7_" style="overflow:visible;"></use>
	</clipPath>
	<g class="st10">
		<path class="st5" d="M614.8,715.4H382.4c-19.9,0-36-16.1-36-36V100c0-19.9,16.1-35.9,36-36h232.4c19.9,0,36,16.1,36,36v579.4    C650.7,699.3,634.6,715.4,614.8,715.4z"></path>
		<g>
			<circle class="st11" cx="535.6" cy="77.6" r="5.8"></circle>
			<path class="st11" d="M516.1,74.7h-35c-1.6,0-2.9,1.3-2.9,2.9c0,1.6,1.3,2.9,2.9,2.9h35c1.6,0,2.9-1.3,2.9-2.9     C519,76,517.7,74.7,516.1,74.7z"></path>
			<path class="st11" d="M665.2,205.9v77.6c-0.3,0.1-0.6,0.1-0.8,0.1h-4v-77.8h4C664.7,205.8,665,205.9,665.2,205.9v-106     c0-27.9-22.6-50.6-50.6-50.6H382.4c-27.9,0-50.6,22.6-50.6,50.6l0,0v41.8c-1.7,0.4-2.9,1.9-2.9,3.7v17.7c0,1.8,1.2,3.3,2.9,3.7     v23.6c0.3-0.1,0.6-0.1,0.8-0.1h4v48.6h-4c-0.3,0-0.6,0-0.8-0.1v-48.4c-1.7,0.4-2.9,1.9-2.9,3.7v41c0,1.8,1.2,3.3,2.9,3.7v12.9     c0.3-0.1,0.6-0.1,0.8-0.1h4v48.6h-4c-0.3,0-0.6,0-0.8-0.1v379.3c0,27.9,22.6,50.5,50.6,50.5h232.4c27.9,0,50.6-22.6,50.6-50.6     l0,0V283.5c1.7-0.4,2.9-1.9,2.9-3.7v-70.2C668.2,207.9,667,206.4,665.2,205.9z M336.7,166.9h-4c-0.3,0-0.6,0-0.8-0.1v-25     c0.3-0.1,0.6-0.1,0.8-0.1h4V166.9z M614.8,715.4H382.4c-19.9,0-36-16.1-36-36V100c0-19.9,16.1-35.9,36-36h232.4     c19.9,0,36,16.1,36,36v579.4C650.7,699.3,634.6,715.4,614.8,715.4z"></path>
			<path class="st11" d="M328.9,255.3v41c0,1.8,1.2,3.3,2.9,3.7v-48.4C330.1,252.1,328.9,253.6,328.9,255.3z"></path>
		</g>
		<path class="st0" d="M382.4,711.5c-17.7,0-32.1-14.4-32.1-32.1V100c0-17.7,14.4-32,32.1-32.1h29.9c3.1,0,5.7,2.5,5.8,5.6l0.1,3.7    c0.3,7.9,6.7,14.1,14.6,14h131.5c7.9,0.1,14.3-6.2,14.6-14l0.1-3.7c0.1-3.1,2.7-5.6,5.8-5.6h29.9c17.7,0,32.1,14.4,32.1,32.1    v579.4c0,17.7-14.4,32.1-32.1,32.1H382.4z"></path>
	</g>
</g>
<g>
	<path class="st5" d="M394.6,336.5v-216c0-4.7,3.8-8.7,8.7-8.7h282.5c4.7,0,8.7,3.8,8.7,8.7v28l15.9,15.9l-15.9,16.1v156.1   c0,4.7-3.8,8.7-8.7,8.7H403.6C398.6,345.2,394.6,341.3,394.6,336.5z"></path>
	<path class="st12" d="M394.6,336.5v-216c0-4.7,3.8-8.7,8.7-8.7h282.5c4.7,0,8.7,3.8,8.7,8.7v28l15.9,15.9l-15.9,16.1v156.1   c0,4.7-3.8,8.7-8.7,8.7H403.6C398.6,345.2,394.6,341.3,394.6,336.5z"></path>
</g>
<g>
	<circle class="st13" cx="762.5" cy="164.3" r="41.4"></circle>
</g>
<g>
	<path class="st14" d="M420.3,146.6c1.5,0,2.6,0.6,3.4,1.8c0.8,1.2,1.2,2.8,1.2,4.8c0,2.1-0.4,3.8-1.2,5s-2,1.8-3.5,1.8   c-1.5,0-2.6-0.6-3.4-1.8c-0.8-1.2-1.2-2.8-1.2-4.9c0-2.1,0.4-3.7,1.3-4.9C417.6,147.2,418.8,146.6,420.3,146.6z M420.2,148.5   c-0.7,0-1.2,0.4-1.6,1.2s-0.6,2-0.6,3.6c0,1.6,0.2,2.8,0.6,3.6c0.4,0.8,0.9,1.2,1.6,1.2c1.5,0,2.2-1.6,2.2-4.9   C422.4,150.1,421.7,148.5,420.2,148.5z"></path>
	<path class="st14" d="M434.2,159.8h-2.3v-3.3H426v-1.6l5.3-8.1h2.9v7.8h1.7v1.9h-1.7V159.8z M428.3,154.6h3.5v-3.5   c0-0.5,0-1.2,0.1-2.3h-0.1c-0.4,0.8-0.8,1.5-1.1,2.2L428.3,154.6L428.3,154.6z"></path>
	<path class="st14" d="M437.4,146.8h8.7v1.6l-5.5,11.4H438l5.5-10.9v0h-6.1V146.8z"></path>
	<path class="st14" d="M450.1,153.1L450.1,153.1c-1.3-0.7-2-1.7-2-2.9c0-1.1,0.4-1.9,1.2-2.6s1.9-1,3.1-1c1.3,0,2.3,0.3,3,1   c0.7,0.7,1.1,1.4,1.1,2.3c0,0.6-0.2,1.1-0.5,1.7s-0.8,0.9-1.5,1.3v0.1c0.7,0.3,1.3,0.7,1.8,1.3c0.5,0.6,0.7,1.2,0.7,2   c0,1.2-0.4,2.1-1.3,2.8c-0.9,0.7-2,1.1-3.4,1.1c-1.4,0-2.6-0.4-3.4-1.1c-0.8-0.7-1.2-1.5-1.2-2.5   C447.7,154.9,448.5,153.8,450.1,153.1z M452.4,158.3c0.6,0,1.2-0.2,1.6-0.5s0.6-0.8,0.6-1.4c0-1.2-0.8-2-2.4-2.4   c-0.6,0.2-1.1,0.5-1.4,0.9s-0.5,0.9-0.5,1.4c0,0.6,0.2,1.1,0.6,1.5C451.2,158.1,451.7,158.3,452.4,158.3z M452.4,148.3   c-0.6,0-1,0.2-1.4,0.5c-0.3,0.3-0.5,0.8-0.5,1.2c0,1,0.7,1.7,2.1,2c0.5-0.1,0.9-0.4,1.2-0.7c0.3-0.4,0.5-0.8,0.5-1.2   c0-0.5-0.2-0.9-0.5-1.3C453.5,148.5,453,148.3,452.4,148.3z"></path>
	<path class="st14" d="M460.9,153.1L460.9,153.1c-1.3-0.7-2-1.7-2-2.9c0-1.1,0.4-1.9,1.2-2.6s1.9-1,3.1-1c1.3,0,2.3,0.3,3,1   c0.7,0.7,1.1,1.4,1.1,2.3c0,0.6-0.2,1.1-0.5,1.7s-0.8,0.9-1.5,1.3v0.1c0.7,0.3,1.3,0.7,1.8,1.3c0.5,0.6,0.7,1.2,0.7,2   c0,1.2-0.4,2.1-1.3,2.8c-0.9,0.7-2,1.1-3.4,1.1c-1.4,0-2.6-0.4-3.4-1.1c-0.8-0.7-1.2-1.5-1.2-2.5   C458.4,154.9,459.2,153.8,460.9,153.1z M463.1,158.3c0.6,0,1.2-0.2,1.6-0.5s0.6-0.8,0.6-1.4c0-1.2-0.8-2-2.4-2.4   c-0.6,0.2-1.1,0.5-1.4,0.9s-0.5,0.9-0.5,1.4c0,0.6,0.2,1.1,0.6,1.5C461.9,158.1,462.4,158.3,463.1,158.3z M463.1,148.3   c-0.6,0-1,0.2-1.4,0.5c-0.3,0.3-0.5,0.8-0.5,1.2c0,1,0.7,1.7,2.1,2c0.5-0.1,0.9-0.4,1.2-0.7c0.3-0.4,0.5-0.8,0.5-1.2   c0-0.5-0.2-0.9-0.5-1.3C464.2,148.5,463.7,148.3,463.1,148.3z"></path>
	<path class="st14" d="M470.3,160v-2c0.3,0,0.8,0,1.4,0c1-0.1,1.9-0.4,2.6-1c0.9-0.7,1.4-1.7,1.7-2.9h0c-0.7,0.8-1.6,1.1-2.8,1.1   c-1.1,0-2.1-0.4-2.8-1.1c-0.7-0.7-1.1-1.7-1.1-2.9c0-1.3,0.4-2.4,1.3-3.3s2-1.4,3.4-1.4c1.5,0,2.6,0.5,3.4,1.5c0.8,1,1.2,2.4,1.2,4   c0,2.6-0.8,4.6-2.3,6.1c-1.1,1.1-2.6,1.7-4.4,1.8C471.3,160,470.8,160,470.3,160z M473.7,148.4c-0.6,0-1.1,0.2-1.5,0.8   c-0.4,0.5-0.6,1.1-0.6,1.9c0,0.7,0.2,1.3,0.6,1.7s0.9,0.7,1.6,0.7c0.9,0,1.6-0.4,2.1-1.1c0.1-0.2,0.1-0.5,0.1-0.7   c0-0.9-0.2-1.7-0.6-2.3C475,148.7,474.5,148.4,473.7,148.4z"></path>
	<path class="st14" d="M481,160v-2c0.3,0,0.8,0,1.4,0c1-0.1,1.9-0.4,2.6-1c0.9-0.7,1.4-1.7,1.7-2.9h0c-0.7,0.8-1.6,1.1-2.8,1.1   c-1.1,0-2.1-0.4-2.8-1.1c-0.7-0.7-1.1-1.7-1.1-2.9c0-1.3,0.4-2.4,1.3-3.3s2-1.4,3.4-1.4c1.5,0,2.6,0.5,3.4,1.5c0.8,1,1.2,2.4,1.2,4   c0,2.6-0.8,4.6-2.3,6.1c-1.1,1.1-2.6,1.7-4.4,1.8C482,160,481.5,160,481,160z M484.4,148.4c-0.6,0-1.1,0.2-1.5,0.8   c-0.4,0.5-0.6,1.1-0.6,1.9c0,0.7,0.2,1.3,0.6,1.7s0.9,0.7,1.6,0.7c0.9,0,1.6-0.4,2.1-1.1c0.1-0.2,0.1-0.5,0.1-0.7   c0-0.9-0.2-1.7-0.6-2.3C485.8,148.7,485.2,148.4,484.4,148.4z"></path>
	<path class="st14" d="M495.3,146.6c1.5,0,2.6,0.6,3.4,1.8c0.8,1.2,1.2,2.8,1.2,4.8c0,2.1-0.4,3.8-1.2,5s-2,1.8-3.5,1.8   c-1.5,0-2.6-0.6-3.4-1.8c-0.8-1.2-1.2-2.8-1.2-4.9c0-2.1,0.4-3.7,1.3-4.9C492.7,147.2,493.8,146.6,495.3,146.6z M495.3,148.5   c-0.7,0-1.2,0.4-1.6,1.2s-0.6,2-0.6,3.6c0,1.6,0.2,2.8,0.6,3.6c0.4,0.8,0.9,1.2,1.6,1.2c1.5,0,2.2-1.6,2.2-4.9   C497.5,150.1,496.7,148.5,495.3,148.5z"></path>
	<path class="st14" d="M506.1,146.6c1.5,0,2.6,0.6,3.4,1.8c0.8,1.2,1.2,2.8,1.2,4.8c0,2.1-0.4,3.8-1.2,5c-0.8,1.2-2,1.8-3.5,1.8   c-1.5,0-2.6-0.6-3.4-1.8c-0.8-1.2-1.2-2.8-1.2-4.9c0-2.1,0.4-3.7,1.3-4.9C503.4,147.2,504.6,146.6,506.1,146.6z M506,148.5   c-0.7,0-1.2,0.4-1.6,1.2c-0.4,0.8-0.6,2-0.6,3.6c0,1.6,0.2,2.8,0.6,3.6s0.9,1.2,1.6,1.2c1.5,0,2.2-1.6,2.2-4.9   C508.2,150.1,507.4,148.5,506,148.5z"></path>
	<path class="st14" d="M516.1,159.8V149h0l-2.4,1.2l-0.4-1.9l3.2-1.6h2v13H516.1z"></path>
</g>
<g>
	<path class="st15" d="M416.1,177.7h2.2v4.9h5.1v-4.9h2.2v12.1h-2.2v-5.3h-5.1v5.3h-2.2V177.7z"></path>
	<path class="st15" d="M429.4,177.4c0.4,0,0.7,0.1,0.9,0.3c0.2,0.2,0.3,0.5,0.4,0.9c0,0.3-0.1,0.6-0.4,0.8c-0.2,0.2-0.5,0.3-0.9,0.3   c-0.4,0-0.7-0.1-0.9-0.3c-0.2-0.2-0.3-0.5-0.3-0.8c0-0.3,0.1-0.6,0.4-0.9C428.7,177.5,429,177.4,429.4,177.4z M430.5,189.8h-2.2   V181h2.2V189.8z"></path>
	<path class="st15" d="M439.1,185.5v-7.8h2.2v7.9c0,1.6-0.3,2.7-1,3.4s-1.7,1-3,1c-0.7,0-1.4-0.1-1.9-0.3l0.3-1.8   c0.4,0.1,0.9,0.2,1.4,0.2c0.7,0,1.2-0.2,1.5-0.6C438.9,187.2,439.1,186.5,439.1,185.5z"></path>
	<path class="st15" d="M450.4,184.5v3.1c0,0.9,0,1.6,0.1,2.1h-2l-0.2-1h-0.1c-0.6,0.8-1.5,1.2-2.6,1.2c-0.8,0-1.5-0.3-2-0.8   c-0.5-0.5-0.7-1.1-0.7-1.8c0-1.1,0.5-1.9,1.4-2.5c0.9-0.6,2.2-0.8,3.8-0.8v-0.1c0-0.4-0.1-0.7-0.4-1.1c-0.3-0.3-0.7-0.5-1.4-0.5   c-0.9,0-1.7,0.2-2.4,0.6l-0.4-1.4c0.8-0.5,1.9-0.8,3.2-0.8c1.3,0,2.2,0.3,2.8,1C450.1,182.6,450.4,183.5,450.4,184.5z M448.2,186.7   v-1.2c-2,0-3.1,0.5-3.1,1.6c0,0.4,0.1,0.7,0.4,0.9s0.5,0.3,0.9,0.3c0.4,0,0.8-0.1,1.1-0.4c0.3-0.2,0.5-0.5,0.6-0.9   C448.2,187.1,448.2,186.9,448.2,186.7z"></path>
	<path class="st15" d="M452.7,189.8v-6.2c0-0.7,0-1.6-0.1-2.6h1.9l0.1,1.3h0.1c0.2-0.4,0.6-0.8,1.1-1.1c0.5-0.3,1.1-0.4,1.7-0.4   c0.9,0,1.6,0.3,2.2,0.9c0.6,0.6,0.9,1.6,0.9,2.8v5.2h-2.2v-5c0-0.7-0.1-1.2-0.4-1.6c-0.3-0.4-0.7-0.6-1.3-0.6   c-0.4,0-0.8,0.1-1.1,0.4c-0.3,0.3-0.5,0.6-0.6,0.9c-0.1,0.2-0.1,0.4-0.1,0.7v5.2H452.7z"></path>
	<path class="st15" d="M470.5,186h-5.9c0,0.8,0.3,1.3,0.8,1.7s1.1,0.6,1.9,0.6c0.9,0,1.7-0.1,2.4-0.4l0.3,1.5   c-0.9,0.4-1.9,0.6-3.1,0.6c-1.4,0-2.5-0.4-3.3-1.2c-0.8-0.8-1.2-1.9-1.2-3.2c0-1.3,0.4-2.4,1.1-3.3c0.8-0.9,1.8-1.4,3.1-1.4   c0.7,0,1.3,0.1,1.8,0.4c0.5,0.3,0.9,0.6,1.2,1s0.5,0.9,0.6,1.4c0.1,0.5,0.2,1,0.2,1.5C470.5,185.5,470.5,185.8,470.5,186z    M464.6,184.5h3.9c0-0.5-0.1-1-0.4-1.5c-0.3-0.5-0.8-0.7-1.4-0.7c-0.6,0-1.1,0.2-1.4,0.7C464.8,183.5,464.6,184,464.6,184.5z"></path>
	<path class="st15" d="M472.5,191.8L471,192c0.6-1.5,1-3.1,1.2-4.8l2.3-0.2C473.9,189,473.3,190.6,472.5,191.8z"></path>
	<path class="st15" d="M480.4,179.4l2.2-0.6v2.2h2.1v1.7h-2.1v3.9c0,0.6,0.1,1,0.3,1.2c0.2,0.3,0.5,0.4,0.9,0.4c0.4,0,0.6,0,0.9-0.1   l0,1.7c-0.4,0.2-0.9,0.2-1.6,0.2c-0.8,0-1.5-0.2-1.9-0.7c-0.5-0.5-0.7-1.3-0.7-2.5v-4.1h-1.2V181h1.2V179.4z"></path>
	<path class="st15" d="M486.4,189.8V177h2.2v5.2h0c0.3-0.4,0.6-0.7,1.1-1c0.5-0.3,1-0.4,1.5-0.4c0.9,0,1.6,0.3,2.2,0.9   c0.6,0.6,0.9,1.6,0.9,2.9v5.2h-2.2v-4.9c0-0.7-0.1-1.2-0.4-1.6c-0.3-0.4-0.7-0.6-1.3-0.6c-0.4,0-0.8,0.1-1.1,0.4s-0.5,0.5-0.7,0.9   c-0.1,0.2-0.1,0.4-0.1,0.7v5.3H486.4z"></path>
	<path class="st15" d="M503.5,184.5v3.1c0,0.9,0,1.6,0.1,2.1h-2l-0.2-1h-0.1c-0.6,0.8-1.5,1.2-2.6,1.2c-0.8,0-1.5-0.3-2-0.8   c-0.5-0.5-0.7-1.1-0.7-1.8c0-1.1,0.5-1.9,1.4-2.5c0.9-0.6,2.2-0.8,3.8-0.8v-0.1c0-0.4-0.1-0.7-0.4-1.1c-0.3-0.3-0.7-0.5-1.4-0.5   c-0.9,0-1.7,0.2-2.4,0.6l-0.4-1.4c0.8-0.5,1.9-0.8,3.2-0.8c1.3,0,2.2,0.3,2.8,1C503.2,182.6,503.5,183.5,503.5,184.5z M501.3,186.7   v-1.2c-2,0-3.1,0.5-3.1,1.6c0,0.4,0.1,0.7,0.4,0.9s0.5,0.3,0.9,0.3c0.4,0,0.8-0.1,1.1-0.4c0.3-0.2,0.5-0.5,0.6-0.9   C501.3,187.1,501.3,186.9,501.3,186.7z"></path>
	<path class="st15" d="M505.8,189.8v-6.2c0-0.7,0-1.6-0.1-2.6h1.9l0.1,1.3h0.1c0.2-0.4,0.6-0.8,1.1-1.1c0.5-0.3,1.1-0.4,1.7-0.4   c0.9,0,1.6,0.3,2.2,0.9c0.6,0.6,0.9,1.6,0.9,2.8v5.2h-2.2v-5c0-0.7-0.1-1.2-0.4-1.6c-0.3-0.4-0.7-0.6-1.3-0.6   c-0.4,0-0.8,0.1-1.1,0.4c-0.3,0.3-0.5,0.6-0.6,0.9c-0.1,0.2-0.1,0.4-0.1,0.7v5.2H505.8z"></path>
	<path class="st15" d="M518.3,177v7.9h0c0.2-0.4,0.5-0.7,0.7-1l2.1-2.8h2.7l-3.3,3.6l3.7,5.2h-2.7l-2.5-3.9l-0.7,0.9v3h-2.2V177   H518.3z"></path>
	<path class="st15" d="M524.7,189.4l0.4-1.6c0.7,0.4,1.4,0.6,2.2,0.6c0.9,0,1.4-0.3,1.4-1c0-0.3-0.1-0.5-0.3-0.7   c-0.2-0.2-0.6-0.4-1.1-0.6c-1.6-0.5-2.4-1.4-2.4-2.6c0-0.8,0.3-1.4,0.9-2c0.6-0.5,1.4-0.8,2.4-0.8c0.9,0,1.7,0.2,2.3,0.5l-0.5,1.5   c-0.6-0.3-1.2-0.5-1.9-0.5c-0.4,0-0.7,0.1-0.9,0.3c-0.2,0.2-0.3,0.4-0.3,0.7c0,0.3,0.1,0.5,0.3,0.6s0.6,0.4,1.2,0.6   c0.8,0.3,1.4,0.6,1.8,1.1c0.4,0.4,0.6,1,0.6,1.6c0,0.8-0.3,1.5-0.9,2c-0.6,0.5-1.5,0.8-2.6,0.8C526.3,190,525.4,189.8,524.7,189.4z   "></path>
	<path class="st15" d="M538.9,189.8h-2.2v-7.1h-1.2V181h1.2v-0.4c0-1.3,0.4-2.3,1.1-3c0.6-0.6,1.4-0.8,2.3-0.8   c0.5,0,0.9,0.1,1.4,0.2l-0.1,1.7c-0.3-0.1-0.6-0.2-1-0.2c-1,0-1.5,0.7-1.5,2v0.4h1.9v1.7h-1.9V189.8z"></path>
	<path class="st15" d="M546,180.8c1.3,0,2.3,0.4,3.2,1.3c0.8,0.8,1.2,1.9,1.2,3.2c0,1.5-0.4,2.7-1.3,3.5c-0.9,0.8-1.9,1.2-3.2,1.2   c-1.3,0-2.3-0.4-3.2-1.2s-1.2-1.9-1.2-3.3c0-1.4,0.4-2.5,1.3-3.4C543.6,181.3,544.7,180.8,546,180.8z M545.9,182.4   c-0.7,0-1.3,0.3-1.6,0.9s-0.5,1.3-0.5,2.1c0,0.9,0.2,1.6,0.6,2.1c0.4,0.6,0.9,0.8,1.6,0.8c0.6,0,1.2-0.3,1.5-0.8   c0.4-0.6,0.6-1.3,0.6-2.2c0-0.8-0.2-1.5-0.5-2.1C547.2,182.7,546.6,182.4,545.9,182.4z"></path>
	<path class="st15" d="M552.2,189.8v-5.9c0-1.2,0-2.1-0.1-2.8h1.9l0.1,1.7h0.1c0.2-0.6,0.5-1,1-1.4c0.4-0.3,0.9-0.5,1.4-0.5   c0.2,0,0.3,0,0.5,0.1v2.1c-0.2,0-0.4-0.1-0.7-0.1c-0.5,0-1,0.2-1.3,0.5s-0.6,0.7-0.7,1.2c0,0.2-0.1,0.4-0.1,0.7v4.6H552.2z"></path>
	<path class="st15" d="M562.3,187.3V177h2.2v5.2h0c0.6-0.9,1.5-1.4,2.8-1.4c1.1,0,2,0.4,2.6,1.2c0.7,0.8,1,1.9,1,3.2   c0,1.5-0.4,2.6-1.2,3.5s-1.7,1.2-2.8,1.2c-1.3,0-2.2-0.5-2.8-1.5h0l-0.1,1.3h-1.9C562.3,189,562.3,188.2,562.3,187.3z M564.5,184.8   v1.4c0,0.2,0,0.4,0.1,0.5c0.1,0.5,0.4,0.8,0.7,1.1c0.4,0.3,0.8,0.4,1.2,0.4c0.7,0,1.2-0.3,1.6-0.8c0.4-0.5,0.6-1.2,0.6-2.1   c0-0.8-0.2-1.5-0.6-2c-0.4-0.5-0.9-0.8-1.6-0.8c-0.5,0-0.9,0.1-1.2,0.4c-0.4,0.3-0.6,0.7-0.7,1.2   C564.5,184.4,564.5,184.6,564.5,184.8z"></path>
	<path class="st15" d="M576.8,180.8c1.3,0,2.3,0.4,3.2,1.3c0.8,0.8,1.2,1.9,1.2,3.2c0,1.5-0.4,2.7-1.3,3.5c-0.9,0.8-1.9,1.2-3.2,1.2   c-1.3,0-2.3-0.4-3.2-1.2s-1.2-1.9-1.2-3.3c0-1.4,0.4-2.5,1.3-3.4C574.4,181.3,575.5,180.8,576.8,180.8z M576.8,182.4   c-0.7,0-1.3,0.3-1.6,0.9s-0.5,1.3-0.5,2.1c0,0.9,0.2,1.6,0.6,2.1c0.4,0.6,0.9,0.8,1.6,0.8c0.6,0,1.2-0.3,1.5-0.8   c0.4-0.6,0.6-1.3,0.6-2.2c0-0.8-0.2-1.5-0.5-2.1C578,182.7,577.5,182.4,576.8,182.4z"></path>
	<path class="st15" d="M587,180.8c1.3,0,2.3,0.4,3.2,1.3c0.8,0.8,1.2,1.9,1.2,3.2c0,1.5-0.4,2.7-1.3,3.5c-0.9,0.8-1.9,1.2-3.2,1.2   c-1.3,0-2.3-0.4-3.2-1.2s-1.2-1.9-1.2-3.3c0-1.4,0.4-2.5,1.3-3.4C584.5,181.3,585.6,180.8,587,180.8z M586.9,182.4   c-0.7,0-1.3,0.3-1.6,0.9s-0.5,1.3-0.5,2.1c0,0.9,0.2,1.6,0.6,2.1c0.4,0.6,0.9,0.8,1.6,0.8c0.6,0,1.2-0.3,1.5-0.8   c0.4-0.6,0.6-1.3,0.6-2.2c0-0.8-0.2-1.5-0.5-2.1C588.1,182.7,587.6,182.4,586.9,182.4z"></path>
	<path class="st15" d="M595.4,177v7.9h0c0.2-0.4,0.5-0.7,0.7-1l2.1-2.8h2.7l-3.3,3.6l3.7,5.2h-2.7l-2.5-3.9l-0.7,0.9v3h-2.2V177   H595.4z"></path>
	<path class="st15" d="M603.7,177.4c0.4,0,0.7,0.1,0.9,0.3c0.2,0.2,0.3,0.5,0.4,0.9c0,0.3-0.1,0.6-0.4,0.8c-0.2,0.2-0.5,0.3-0.9,0.3   c-0.4,0-0.7-0.1-0.9-0.3c-0.2-0.2-0.3-0.5-0.3-0.8c0-0.3,0.1-0.6,0.4-0.9C603,177.5,603.3,177.4,603.7,177.4z M604.8,189.8h-2.2   V181h2.2V189.8z"></path>
	<path class="st15" d="M607.1,189.8v-6.2c0-0.7,0-1.6-0.1-2.6h1.9l0.1,1.3h0.1c0.2-0.4,0.6-0.8,1.1-1.1c0.5-0.3,1.1-0.4,1.7-0.4   c0.9,0,1.6,0.3,2.2,0.9c0.6,0.6,0.9,1.6,0.9,2.8v5.2h-2.2v-5c0-0.7-0.1-1.2-0.4-1.6c-0.3-0.4-0.7-0.6-1.3-0.6   c-0.4,0-0.8,0.1-1.1,0.4c-0.3,0.3-0.5,0.6-0.6,0.9c-0.1,0.2-0.1,0.4-0.1,0.7v5.2H607.1z"></path>
	<path class="st15" d="M625.4,183.6v5c0,1.9-0.4,3.2-1.3,4c-0.8,0.7-1.9,1.1-3.4,1.1c-1.2,0-2.3-0.2-3.1-0.7l0.5-1.7   c0.8,0.4,1.6,0.7,2.6,0.7c0.8,0,1.4-0.2,1.8-0.6c0.5-0.4,0.7-1.1,0.7-2v-0.8h0c-0.6,0.9-1.4,1.3-2.6,1.3c-1.1,0-2-0.4-2.7-1.2   c-0.7-0.8-1-1.8-1-3.1c0-1.4,0.4-2.5,1.2-3.4c0.8-0.8,1.7-1.3,2.8-1.3c1.2,0,2,0.5,2.5,1.4h0l0.1-1.2h1.9   C625.4,181.8,625.4,182.7,625.4,183.6z M623.2,186v-1.4c0-0.2,0-0.4-0.1-0.6c-0.1-0.4-0.3-0.8-0.6-1c-0.3-0.3-0.7-0.4-1.2-0.4   c-0.6,0-1.2,0.3-1.6,0.8c-0.4,0.5-0.6,1.2-0.6,2.1c0,0.8,0.2,1.4,0.6,1.9c0.4,0.5,0.9,0.8,1.6,0.8c0.4,0,0.8-0.1,1.1-0.4   c0.3-0.2,0.6-0.6,0.7-1C623.1,186.6,623.2,186.3,623.2,186z"></path>
	<path class="st15" d="M632.6,177.4c0.4,0,0.7,0.1,0.9,0.3c0.2,0.2,0.3,0.5,0.4,0.9c0,0.3-0.1,0.6-0.4,0.8c-0.2,0.2-0.5,0.3-0.9,0.3   c-0.4,0-0.7-0.1-0.9-0.3c-0.2-0.2-0.3-0.5-0.3-0.8c0-0.3,0.1-0.6,0.4-0.9C631.9,177.5,632.2,177.4,632.6,177.4z M633.7,189.8h-2.2   V181h2.2V189.8z"></path>
	<path class="st15" d="M636.1,189.8v-6.2c0-0.7,0-1.6-0.1-2.6h1.9l0.1,1.3h0.1c0.2-0.4,0.6-0.8,1.1-1.1c0.5-0.3,1.1-0.4,1.7-0.4   c0.9,0,1.6,0.3,2.2,0.9c0.6,0.6,0.9,1.6,0.9,2.8v5.2h-2.2v-5c0-0.7-0.1-1.2-0.4-1.6c-0.3-0.4-0.7-0.6-1.3-0.6   c-0.4,0-0.8,0.1-1.1,0.4c-0.3,0.3-0.5,0.6-0.6,0.9c-0.1,0.2-0.1,0.4-0.1,0.7v5.2H636.1z"></path>
	<path class="st15" d="M415.1,211h2.3l0.9,4c0.2,1,0.4,2,0.6,2.8h0c0.1-0.3,0.3-1.3,0.7-2.8l1.2-4h1.8l1.1,3.9   c0.3,1.1,0.5,2.1,0.7,2.9h0c0.1-0.6,0.3-1.6,0.6-2.9l1-3.9h2.2l-2.8,8.8h-2.1l-1-3.6c-0.3-0.9-0.5-1.8-0.7-2.8h0   c-0.2,0.9-0.4,1.9-0.7,2.8l-1.1,3.6h-2.1L415.1,211z"></path>
	<path class="st15" d="M430.6,207.4c0.4,0,0.7,0.1,0.9,0.3c0.2,0.2,0.3,0.5,0.4,0.9c0,0.3-0.1,0.6-0.4,0.8c-0.2,0.2-0.5,0.3-0.9,0.3   c-0.4,0-0.7-0.1-0.9-0.3c-0.2-0.2-0.3-0.5-0.3-0.8c0-0.3,0.1-0.6,0.4-0.9C430,207.5,430.3,207.4,430.6,207.4z M431.7,219.8h-2.2   V211h2.2V219.8z"></path>
	<path class="st15" d="M434.5,209.4l2.2-0.6v2.2h2.1v1.7h-2.1v3.9c0,0.6,0.1,1,0.3,1.2c0.2,0.3,0.5,0.4,0.9,0.4c0.4,0,0.6,0,0.9-0.1   l0,1.7c-0.4,0.2-0.9,0.2-1.6,0.2c-0.8,0-1.5-0.2-1.9-0.7c-0.5-0.5-0.7-1.3-0.7-2.5v-4.1h-1.2V211h1.2V209.4z"></path>
	<path class="st15" d="M440.5,219.8V207h2.2v5.2h0c0.3-0.4,0.6-0.7,1.1-1c0.5-0.3,1-0.4,1.5-0.4c0.9,0,1.6,0.3,2.2,0.9   c0.6,0.6,0.9,1.6,0.9,2.9v5.2h-2.2v-4.9c0-0.7-0.1-1.2-0.4-1.6c-0.3-0.4-0.7-0.6-1.3-0.6c-0.4,0-0.8,0.1-1.1,0.4s-0.5,0.5-0.7,0.9   c-0.1,0.2-0.1,0.4-0.1,0.7v5.3H440.5z"></path>
	<path class="st15" d="M462.9,217.7l0.4,1.7c-0.7,0.4-1.8,0.5-3.2,0.5c-1.9,0-3.4-0.6-4.5-1.7s-1.7-2.6-1.7-4.5c0-2,0.6-3.5,1.8-4.7   c1.2-1.2,2.8-1.7,4.7-1.7c1.3,0,2.2,0.2,2.9,0.5l-0.5,1.8c-0.7-0.3-1.5-0.5-2.4-0.5c-1.3,0-2.3,0.4-3.1,1.2   c-0.8,0.8-1.2,1.9-1.2,3.3c0,1.4,0.4,2.4,1.1,3.2c0.7,0.8,1.8,1.2,3.1,1.2C461.4,218.1,462.2,218,462.9,217.7z"></path>
	<path class="st15" d="M468.7,210.8c1.3,0,2.3,0.4,3.1,1.3c0.8,0.8,1.2,1.9,1.2,3.2c0,1.5-0.4,2.7-1.3,3.5c-0.9,0.8-1.9,1.2-3.2,1.2   c-1.3,0-2.3-0.4-3.1-1.2s-1.2-1.9-1.2-3.3c0-1.4,0.4-2.5,1.3-3.4C466.3,211.3,467.4,210.8,468.7,210.8z M468.7,212.4   c-0.7,0-1.3,0.3-1.6,0.9s-0.5,1.3-0.5,2.1c0,0.9,0.2,1.6,0.6,2.1c0.4,0.6,0.9,0.8,1.6,0.8c0.6,0,1.2-0.3,1.5-0.8   c0.4-0.6,0.6-1.3,0.6-2.2c0-0.8-0.2-1.5-0.5-2.1C469.9,212.7,469.4,212.4,468.7,212.4z"></path>
	<path class="st15" d="M478.2,219.2l0.5-1.8c0.9,0.5,1.9,0.8,2.9,0.8c0.7,0,1.2-0.1,1.6-0.4c0.4-0.3,0.6-0.7,0.6-1.2   c0-0.5-0.2-0.8-0.5-1.1c-0.3-0.3-0.9-0.6-1.6-0.9c-2.2-0.8-3.3-2-3.3-3.5c0-1,0.4-1.9,1.2-2.5c0.8-0.7,1.8-1,3.1-1   c1.1,0,2.1,0.2,2.9,0.6l-0.5,1.8c-0.7-0.4-1.6-0.6-2.4-0.6c-0.7,0-1.2,0.1-1.5,0.4s-0.5,0.6-0.5,1c0,0.4,0.2,0.8,0.5,1.1   c0.3,0.3,0.9,0.6,1.8,0.9c1.1,0.4,1.9,0.9,2.4,1.5c0.5,0.6,0.8,1.3,0.8,2.1c0,1-0.4,1.9-1.2,2.6c-0.8,0.7-1.9,1-3.4,1   c-0.6,0-1.2-0.1-1.9-0.2C479,219.6,478.5,219.4,478.2,219.2z"></path>
	<path class="st15" d="M494.9,214.5v3.1c0,0.9,0,1.6,0.1,2.1h-2l-0.2-1h-0.1c-0.6,0.8-1.5,1.2-2.6,1.2c-0.8,0-1.5-0.3-2-0.8   c-0.5-0.5-0.7-1.1-0.7-1.8c0-1.1,0.5-1.9,1.4-2.5c0.9-0.6,2.2-0.8,3.8-0.8v-0.1c0-0.4-0.1-0.7-0.4-1.1c-0.3-0.3-0.7-0.5-1.4-0.5   c-0.9,0-1.7,0.2-2.4,0.6l-0.4-1.4c0.8-0.5,1.9-0.8,3.2-0.8c1.3,0,2.2,0.3,2.8,1C494.6,212.6,494.9,213.5,494.9,214.5z M492.7,216.7   v-1.2c-2,0-3.1,0.5-3.1,1.6c0,0.4,0.1,0.7,0.4,0.9s0.5,0.3,0.9,0.3c0.4,0,0.8-0.1,1.1-0.4c0.3-0.2,0.5-0.5,0.6-0.9   C492.7,217.1,492.7,216.9,492.7,216.7z"></path>
	<path class="st15" d="M497.2,219.8V207h2.2v12.8H497.2z"></path>
	<path class="st15" d="M505.8,210.8c1.3,0,2.3,0.4,3.2,1.3c0.8,0.8,1.2,1.9,1.2,3.2c0,1.5-0.4,2.7-1.3,3.5c-0.9,0.8-1.9,1.2-3.2,1.2   c-1.3,0-2.3-0.4-3.2-1.2s-1.2-1.9-1.2-3.3c0-1.4,0.4-2.5,1.3-3.4C503.4,211.3,504.5,210.8,505.8,210.8z M505.8,212.4   c-0.7,0-1.3,0.3-1.6,0.9s-0.5,1.3-0.5,2.1c0,0.9,0.2,1.6,0.6,2.1c0.4,0.6,0.9,0.8,1.6,0.8c0.6,0,1.2-0.3,1.5-0.8   c0.4-0.6,0.6-1.3,0.6-2.2c0-0.8-0.2-1.5-0.5-2.1C507,212.7,506.5,212.4,505.8,212.4z"></path>
	<path class="st15" d="M512,219.8v-6.2c0-0.7,0-1.6-0.1-2.6h1.9l0.1,1.3h0.1c0.2-0.4,0.6-0.8,1.1-1.1c0.5-0.3,1.1-0.4,1.7-0.4   c0.9,0,1.6,0.3,2.2,0.9c0.6,0.6,0.9,1.6,0.9,2.8v5.2h-2.2v-5c0-0.7-0.1-1.2-0.4-1.6c-0.3-0.4-0.7-0.6-1.3-0.6   c-0.4,0-0.8,0.1-1.1,0.4c-0.3,0.3-0.5,0.6-0.6,0.9c-0.1,0.2-0.1,0.4-0.1,0.7v5.2H512z"></path>
	<path class="st15" d="M523.4,220c-0.4,0-0.7-0.1-1-0.4s-0.4-0.6-0.4-1c0-0.4,0.1-0.7,0.4-1s0.6-0.4,1-0.4c0.4,0,0.7,0.1,1,0.4   c0.3,0.3,0.4,0.6,0.4,1c0,0.4-0.1,0.7-0.4,1S523.8,220,523.4,220z"></path>
	<path class="st15" d="M534.6,219.8h-2.2v-5.1l-3.8-7.1h2.5l1.4,3.1c0.4,0.9,0.8,1.7,1.1,2.4h0c0.2-0.6,0.6-1.4,1-2.4l1.5-3.1h2.5   l-4,7V219.8z"></path>
	<path class="st15" d="M542.2,210.8c1.3,0,2.3,0.4,3.2,1.3c0.8,0.8,1.2,1.9,1.2,3.2c0,1.5-0.4,2.7-1.3,3.5c-0.9,0.8-1.9,1.2-3.2,1.2   c-1.3,0-2.3-0.4-3.2-1.2s-1.2-1.9-1.2-3.3c0-1.4,0.4-2.5,1.3-3.4C539.7,211.3,540.8,210.8,542.2,210.8z M542.1,212.4   c-0.7,0-1.3,0.3-1.6,0.9s-0.5,1.3-0.5,2.1c0,0.9,0.2,1.6,0.6,2.1c0.4,0.6,0.9,0.8,1.6,0.8c0.6,0,1.2-0.3,1.5-0.8   c0.4-0.6,0.6-1.3,0.6-2.2c0-0.8-0.2-1.5-0.5-2.1C543.3,212.7,542.8,212.4,542.1,212.4z"></path>
	<path class="st15" d="M556.2,211v6.1c0,0.8,0,1.7,0.1,2.6h-1.9l-0.1-1.3h-0.1c-0.6,1-1.6,1.5-2.8,1.5c-0.9,0-1.6-0.3-2.2-0.9   s-0.9-1.6-0.9-2.9V211h2.2v4.8c0,1.6,0.5,2.4,1.6,2.4c0.4,0,0.8-0.1,1.1-0.4s0.5-0.5,0.6-0.8c0.1-0.2,0.1-0.4,0.1-0.7V211H556.2z"></path>
	<path class="st15" d="M562.3,219.8V207h2.2v5.2h0c0.3-0.4,0.6-0.7,1.1-1c0.5-0.3,1-0.4,1.5-0.4c0.9,0,1.6,0.3,2.2,0.9   c0.6,0.6,0.9,1.6,0.9,2.9v5.2H568v-4.9c0-0.7-0.1-1.2-0.4-1.6c-0.3-0.4-0.7-0.6-1.3-0.6c-0.4,0-0.8,0.1-1.1,0.4   c-0.3,0.2-0.5,0.5-0.7,0.9c-0.1,0.2-0.1,0.4-0.1,0.7v5.3H562.3z"></path>
	<path class="st15" d="M579.4,214.5v3.1c0,0.9,0,1.6,0.1,2.1h-2l-0.2-1h-0.1c-0.6,0.8-1.5,1.2-2.6,1.2c-0.8,0-1.5-0.3-2-0.8   c-0.5-0.5-0.7-1.1-0.7-1.8c0-1.1,0.5-1.9,1.4-2.5c0.9-0.6,2.2-0.8,3.8-0.8v-0.1c0-0.4-0.1-0.7-0.4-1.1c-0.3-0.3-0.7-0.5-1.4-0.5   c-0.9,0-1.7,0.2-2.4,0.6l-0.4-1.4c0.8-0.5,1.9-0.8,3.2-0.8c1.3,0,2.2,0.3,2.8,1C579.1,212.6,579.4,213.5,579.4,214.5z M577.2,216.7   v-1.2c-2,0-3.1,0.5-3.1,1.6c0,0.4,0.1,0.7,0.4,0.9s0.5,0.3,0.9,0.3c0.4,0,0.8-0.1,1.1-0.4c0.3-0.2,0.5-0.5,0.6-0.9   C577.2,217.1,577.2,216.9,577.2,216.7z"></path>
	<path class="st15" d="M580.6,211h2.4l1.4,4.4c0.2,0.7,0.4,1.4,0.6,2.2h0.1c0.1-0.5,0.3-1.2,0.6-2.2l1.4-4.4h2.3l-3.3,8.8h-2.2   L580.6,211z"></path>
	<path class="st15" d="M597.9,216H592c0,0.8,0.3,1.3,0.8,1.7s1.1,0.6,1.9,0.6c0.9,0,1.7-0.1,2.4-0.4l0.3,1.5   c-0.9,0.4-1.9,0.6-3.1,0.6c-1.4,0-2.5-0.4-3.3-1.2c-0.8-0.8-1.2-1.9-1.2-3.2c0-1.3,0.4-2.4,1.1-3.3c0.8-0.9,1.8-1.4,3.1-1.4   c0.7,0,1.3,0.1,1.8,0.4c0.5,0.3,0.9,0.6,1.2,1s0.5,0.9,0.6,1.4c0.1,0.5,0.2,1,0.2,1.5C598,215.5,597.9,215.8,597.9,216z M592,214.5   h3.9c0-0.5-0.1-1-0.4-1.5c-0.3-0.5-0.8-0.7-1.4-0.7c-0.6,0-1.1,0.2-1.4,0.7C592.3,213.5,592.1,214,592,214.5z"></path>
	<path class="st15" d="M610.3,214.5v3.1c0,0.9,0,1.6,0.1,2.1h-2l-0.2-1h-0.1c-0.6,0.8-1.5,1.2-2.6,1.2c-0.8,0-1.5-0.3-2-0.8   c-0.5-0.5-0.7-1.1-0.7-1.8c0-1.1,0.5-1.9,1.4-2.5c0.9-0.6,2.2-0.8,3.8-0.8v-0.1c0-0.4-0.1-0.7-0.4-1.1c-0.3-0.3-0.7-0.5-1.4-0.5   c-0.9,0-1.7,0.2-2.4,0.6l-0.4-1.4c0.8-0.5,1.9-0.8,3.2-0.8c1.3,0,2.2,0.3,2.8,1C610,212.6,610.3,213.5,610.3,214.5z M608.1,216.7   v-1.2c-2,0-3.1,0.5-3.1,1.6c0,0.4,0.1,0.7,0.4,0.9s0.5,0.3,0.9,0.3c0.4,0,0.8-0.1,1.1-0.4c0.3-0.2,0.5-0.5,0.6-0.9   C608.1,217.1,608.1,216.9,608.1,216.7z"></path>
	<path class="st15" d="M612.6,219.8v-6.2c0-0.7,0-1.6-0.1-2.6h1.9l0.1,1.3h0.1c0.2-0.4,0.6-0.8,1.1-1.1c0.5-0.3,1.1-0.4,1.7-0.4   c0.9,0,1.6,0.3,2.2,0.9c0.6,0.6,0.9,1.6,0.9,2.8v5.2h-2.2v-5c0-0.7-0.1-1.2-0.4-1.6c-0.3-0.4-0.7-0.6-1.3-0.6   c-0.4,0-0.8,0.1-1.1,0.4c-0.3,0.3-0.5,0.6-0.6,0.9c-0.1,0.2-0.1,0.4-0.1,0.7v5.2H612.6z"></path>
	<path class="st15" d="M422.8,244.5v3.1c0,0.9,0,1.6,0.1,2.1h-2l-0.2-1h-0.1c-0.6,0.8-1.5,1.2-2.6,1.2c-0.8,0-1.5-0.3-2-0.8   c-0.5-0.5-0.7-1.1-0.7-1.8c0-1.1,0.5-1.9,1.4-2.5c0.9-0.6,2.2-0.8,3.8-0.8v-0.1c0-0.4-0.1-0.7-0.4-1.1c-0.3-0.3-0.7-0.5-1.4-0.5   c-0.9,0-1.7,0.2-2.4,0.6l-0.4-1.4c0.8-0.5,1.9-0.8,3.2-0.8c1.3,0,2.2,0.3,2.8,1C422.6,242.6,422.8,243.5,422.8,244.5z M420.7,246.7   v-1.2c-2,0-3.1,0.5-3.1,1.6c0,0.4,0.1,0.7,0.4,0.9s0.5,0.3,0.9,0.3c0.4,0,0.8-0.1,1.1-0.4c0.3-0.2,0.5-0.5,0.6-0.9   C420.7,247.1,420.7,246.9,420.7,246.7z"></path>
	<path class="st15" d="M425.2,253.4V244c0-0.8,0-1.8-0.1-2.9h1.9l0.1,1.4h0c0.7-1,1.7-1.5,3-1.5c1,0,1.9,0.4,2.6,1.2   c0.7,0.8,1.1,1.9,1.1,3.2c0,1.5-0.4,2.6-1.2,3.5c-0.8,0.8-1.7,1.2-2.8,1.2c-0.5,0-1-0.1-1.5-0.3c-0.4-0.2-0.8-0.5-1-0.9h0v4.5   H425.2z M427.4,244.8v1.4c0,0.2,0,0.4,0.1,0.6c0.1,0.5,0.4,0.8,0.7,1.1c0.4,0.3,0.8,0.4,1.2,0.4c0.7,0,1.2-0.3,1.6-0.8   c0.4-0.5,0.6-1.2,0.6-2.1c0-0.8-0.2-1.5-0.6-2c-0.4-0.5-0.9-0.8-1.6-0.8c-0.5,0-0.9,0.2-1.3,0.5c-0.4,0.3-0.6,0.7-0.7,1.2   C427.4,244.5,427.4,244.6,427.4,244.8z"></path>
	<path class="st15" d="M435.7,253.4V244c0-0.8,0-1.8-0.1-2.9h1.9l0.1,1.4h0c0.7-1,1.7-1.5,3-1.5c1,0,1.9,0.4,2.6,1.2   c0.7,0.8,1.1,1.9,1.1,3.2c0,1.5-0.4,2.6-1.2,3.5c-0.8,0.8-1.7,1.2-2.8,1.2c-0.5,0-1-0.1-1.5-0.3c-0.4-0.2-0.8-0.5-1-0.9h0v4.5   H435.7z M437.9,244.8v1.4c0,0.2,0,0.4,0.1,0.6c0.1,0.5,0.4,0.8,0.7,1.1c0.4,0.3,0.8,0.4,1.2,0.4c0.7,0,1.2-0.3,1.6-0.8   c0.4-0.5,0.6-1.2,0.6-2.1c0-0.8-0.2-1.5-0.6-2c-0.4-0.5-0.9-0.8-1.6-0.8c-0.5,0-0.9,0.2-1.3,0.5c-0.4,0.3-0.6,0.7-0.7,1.2   C438,244.5,437.9,244.6,437.9,244.8z"></path>
	<path class="st15" d="M450.2,240.8c1.3,0,2.3,0.4,3.1,1.3c0.8,0.8,1.2,1.9,1.2,3.2c0,1.5-0.4,2.7-1.3,3.5c-0.9,0.8-1.9,1.2-3.2,1.2   c-1.3,0-2.3-0.4-3.1-1.2s-1.2-1.9-1.2-3.3c0-1.4,0.4-2.5,1.3-3.4C447.8,241.3,448.9,240.8,450.2,240.8z M450.2,242.4   c-0.7,0-1.3,0.3-1.6,0.9s-0.5,1.3-0.5,2.1c0,0.9,0.2,1.6,0.6,2.1c0.4,0.6,0.9,0.8,1.6,0.8c0.6,0,1.2-0.3,1.5-0.8   c0.4-0.6,0.6-1.3,0.6-2.2c0-0.8-0.2-1.5-0.5-2.1C451.4,242.7,450.9,242.4,450.2,242.4z"></path>
	<path class="st15" d="M457.5,237.4c0.4,0,0.7,0.1,0.9,0.3c0.2,0.2,0.3,0.5,0.4,0.9c0,0.3-0.1,0.6-0.4,0.8c-0.2,0.2-0.5,0.3-0.9,0.3   c-0.4,0-0.7-0.1-0.9-0.3c-0.2-0.2-0.3-0.5-0.3-0.8c0-0.3,0.1-0.6,0.4-0.9C456.9,237.5,457.2,237.4,457.5,237.4z M458.6,249.8h-2.2   V241h2.2V249.8z"></path>
	<path class="st15" d="M461,249.8v-6.2c0-0.7,0-1.6-0.1-2.6h1.9l0.1,1.3h0.1c0.2-0.4,0.6-0.8,1.1-1.1c0.5-0.3,1.1-0.4,1.7-0.4   c0.9,0,1.6,0.3,2.2,0.9c0.6,0.6,0.9,1.6,0.9,2.8v5.2h-2.2v-5c0-0.7-0.1-1.2-0.4-1.6c-0.3-0.4-0.7-0.6-1.3-0.6   c-0.4,0-0.8,0.1-1.1,0.4c-0.3,0.3-0.5,0.6-0.6,0.9c-0.1,0.2-0.1,0.4-0.1,0.7v5.2H461z"></path>
	<path class="st15" d="M471.6,239.4l2.2-0.6v2.2h2.1v1.7h-2.1v3.9c0,0.6,0.1,1,0.3,1.2c0.2,0.3,0.5,0.4,0.9,0.4c0.4,0,0.6,0,0.9-0.1   l0,1.7c-0.4,0.2-0.9,0.2-1.6,0.2c-0.8,0-1.5-0.2-1.9-0.7c-0.5-0.5-0.7-1.3-0.7-2.5v-4.1h-1.2V241h1.2V239.4z"></path>
	<path class="st15" d="M477.5,249.8v-6.2c0-0.7,0-1.6-0.1-2.6h1.9l0.1,1.3h0.1c0.6-1,1.5-1.5,2.7-1.5c0.6,0,1.1,0.1,1.5,0.4   c0.4,0.3,0.7,0.7,0.9,1.2h0c0.3-0.5,0.7-0.8,1.1-1.1c0.5-0.3,1.1-0.5,1.8-0.5c0.8,0,1.5,0.3,2.1,0.9c0.6,0.6,0.8,1.6,0.8,2.9v5.2   h-2.2V245c0-1.5-0.5-2.3-1.6-2.3c-0.4,0-0.7,0.1-1,0.3c-0.3,0.2-0.5,0.5-0.6,0.8c-0.1,0.2-0.1,0.4-0.1,0.7v5.3h-2.2v-5.1   c0-0.6-0.1-1.1-0.4-1.5c-0.3-0.4-0.6-0.6-1.1-0.6c-0.4,0-0.7,0.1-1,0.4c-0.3,0.2-0.5,0.5-0.6,0.9c-0.1,0.2-0.1,0.5-0.1,0.7v5.2   H477.5z"></path>
	<path class="st15" d="M500.2,246h-5.9c0,0.8,0.3,1.3,0.8,1.7s1.1,0.6,1.9,0.6c0.9,0,1.7-0.1,2.4-0.4l0.3,1.5   c-0.9,0.4-1.9,0.6-3.1,0.6c-1.4,0-2.5-0.4-3.3-1.2c-0.8-0.8-1.2-1.9-1.2-3.2c0-1.3,0.4-2.4,1.1-3.3c0.8-0.9,1.8-1.4,3.1-1.4   c0.7,0,1.3,0.1,1.8,0.4c0.5,0.3,0.9,0.6,1.2,1s0.5,0.9,0.6,1.4c0.1,0.5,0.2,1,0.2,1.5C500.3,245.5,500.3,245.8,500.2,246z    M494.4,244.5h3.9c0-0.5-0.1-1-0.4-1.5c-0.3-0.5-0.8-0.7-1.4-0.7c-0.6,0-1.1,0.2-1.4,0.7C494.6,243.5,494.4,244,494.4,244.5z"></path>
	<path class="st15" d="M502.1,249.8v-6.2c0-0.7,0-1.6-0.1-2.6h1.9l0.1,1.3h0.1c0.2-0.4,0.6-0.8,1.1-1.1c0.5-0.3,1.1-0.4,1.7-0.4   c0.9,0,1.6,0.3,2.2,0.9c0.6,0.6,0.9,1.6,0.9,2.8v5.2h-2.2v-5c0-0.7-0.1-1.2-0.4-1.6c-0.3-0.4-0.7-0.6-1.3-0.6   c-0.4,0-0.8,0.1-1.1,0.4c-0.3,0.3-0.5,0.6-0.6,0.9c-0.1,0.2-0.1,0.4-0.1,0.7v5.2H502.1z"></path>
	<path class="st15" d="M512.7,239.4l2.2-0.6v2.2h2.1v1.7h-2.1v3.9c0,0.6,0.1,1,0.3,1.2c0.2,0.3,0.5,0.4,0.9,0.4c0.4,0,0.6,0,0.9-0.1   l0,1.7c-0.4,0.2-0.9,0.2-1.6,0.2c-0.8,0-1.5-0.2-1.9-0.7c-0.5-0.5-0.7-1.3-0.7-2.5v-4.1h-1.2V241h1.2V239.4z"></path>
	<path class="st15" d="M529.1,244.5v3.1c0,0.9,0,1.6,0.1,2.1h-2l-0.2-1h-0.1c-0.6,0.8-1.5,1.2-2.6,1.2c-0.8,0-1.5-0.3-2-0.8   c-0.5-0.5-0.7-1.1-0.7-1.8c0-1.1,0.5-1.9,1.4-2.5c0.9-0.6,2.2-0.8,3.8-0.8v-0.1c0-0.4-0.1-0.7-0.4-1.1c-0.3-0.3-0.7-0.5-1.4-0.5   c-0.9,0-1.7,0.2-2.4,0.6l-0.4-1.4c0.8-0.5,1.9-0.8,3.2-0.8c1.3,0,2.2,0.3,2.8,1C528.9,242.6,529.1,243.5,529.1,244.5z M527,246.7   v-1.2c-2,0-3.1,0.5-3.1,1.6c0,0.4,0.1,0.7,0.4,0.9s0.5,0.3,0.9,0.3c0.4,0,0.8-0.1,1.1-0.4c0.3-0.2,0.5-0.5,0.6-0.9   C527,247.1,527,246.9,527,246.7z"></path>
	<path class="st15" d="M531.7,239.4l2.2-0.6v2.2h2.1v1.7h-2.1v3.9c0,0.6,0.1,1,0.3,1.2c0.2,0.3,0.5,0.4,0.9,0.4c0.4,0,0.6,0,0.9-0.1   l0,1.7c-0.4,0.2-0.9,0.2-1.6,0.2c-0.8,0-1.5-0.2-1.9-0.7c-0.5-0.5-0.7-1.3-0.7-2.5v-4.1h-1.2V241h1.2V239.4z"></path>
	<path class="st15" d="M540.9,249.2l0.5-1.7c0.8,0.5,1.7,0.7,2.7,0.7c0.8,0,1.4-0.2,1.8-0.5c0.4-0.4,0.6-0.8,0.6-1.3   c0-0.6-0.3-1.1-0.8-1.5c-0.5-0.3-1.1-0.5-1.9-0.5h-1v-1.6h1c0.6,0,1.1-0.1,1.6-0.4c0.5-0.3,0.7-0.7,0.7-1.2c0-0.4-0.2-0.8-0.5-1.1   c-0.3-0.3-0.8-0.4-1.4-0.4c-0.9,0-1.6,0.2-2.4,0.7l-0.5-1.6c0.4-0.2,0.8-0.5,1.5-0.6c0.6-0.2,1.3-0.3,1.9-0.3   c1.2,0,2.1,0.3,2.7,0.8c0.6,0.5,1,1.2,1,2c0,0.6-0.2,1.2-0.5,1.6c-0.4,0.5-0.9,0.8-1.6,1.1v0c0.7,0.1,1.4,0.5,1.8,1   c0.5,0.5,0.7,1.2,0.7,1.9c0,1-0.4,1.9-1.2,2.5c-0.8,0.7-1.9,1-3.3,1C542.9,250,541.8,249.7,540.9,249.2z"></path>
	<path class="st15" d="M551.1,253.4V244c0-0.8,0-1.8-0.1-2.9h1.9l0.1,1.4h0c0.7-1,1.7-1.5,3-1.5c1,0,1.9,0.4,2.6,1.2   c0.7,0.8,1.1,1.9,1.1,3.2c0,1.5-0.4,2.6-1.2,3.5c-0.8,0.8-1.7,1.2-2.8,1.2c-0.5,0-1-0.1-1.5-0.3c-0.4-0.2-0.8-0.5-1-0.9h0v4.5   H551.1z M553.3,244.8v1.4c0,0.2,0,0.4,0.1,0.6c0.1,0.5,0.4,0.8,0.7,1.1c0.4,0.3,0.8,0.4,1.2,0.4c0.7,0,1.2-0.3,1.6-0.8   c0.4-0.5,0.6-1.2,0.6-2.1c0-0.8-0.2-1.5-0.6-2c-0.4-0.5-0.9-0.8-1.6-0.8c-0.5,0-0.9,0.2-1.3,0.5c-0.4,0.3-0.6,0.7-0.7,1.2   C553.3,244.5,553.3,244.6,553.3,244.8z"></path>
	<path class="st15" d="M561.6,249.8v-6.2c0-0.7,0-1.6-0.1-2.6h1.9l0.1,1.3h0.1c0.6-1,1.5-1.5,2.7-1.5c0.6,0,1.1,0.1,1.5,0.4   c0.4,0.3,0.7,0.7,0.9,1.2h0c0.3-0.5,0.7-0.8,1.1-1.1c0.5-0.3,1.1-0.5,1.8-0.5c0.8,0,1.5,0.3,2.1,0.9c0.6,0.6,0.8,1.6,0.8,2.9v5.2   h-2.2V245c0-1.5-0.5-2.3-1.6-2.3c-0.4,0-0.7,0.1-1,0.3c-0.3,0.2-0.5,0.5-0.6,0.8c-0.1,0.2-0.1,0.4-0.1,0.7v5.3H567v-5.1   c0-0.6-0.1-1.1-0.4-1.5s-0.6-0.6-1.1-0.6c-0.4,0-0.7,0.1-1,0.4c-0.3,0.2-0.5,0.5-0.6,0.9c-0.1,0.2-0.1,0.5-0.1,0.7v5.2H561.6z"></path>
	<path class="st15" d="M584.6,240.8c1.3,0,2.3,0.4,3.2,1.3c0.8,0.8,1.2,1.9,1.2,3.2c0,1.5-0.4,2.7-1.3,3.5c-0.9,0.8-1.9,1.2-3.2,1.2   c-1.3,0-2.3-0.4-3.2-1.2s-1.2-1.9-1.2-3.3c0-1.4,0.4-2.5,1.3-3.4C582.1,241.3,583.2,240.8,584.6,240.8z M584.5,242.4   c-0.7,0-1.3,0.3-1.6,0.9s-0.5,1.3-0.5,2.1c0,0.9,0.2,1.6,0.6,2.1c0.4,0.6,0.9,0.8,1.6,0.8c0.6,0,1.2-0.3,1.5-0.8   c0.4-0.6,0.6-1.3,0.6-2.2c0-0.8-0.2-1.5-0.5-2.1C585.7,242.7,585.2,242.4,584.5,242.4z"></path>
	<path class="st15" d="M590.7,249.8v-6.2c0-0.7,0-1.6-0.1-2.6h1.9l0.1,1.3h0.1c0.2-0.4,0.6-0.8,1.1-1.1c0.5-0.3,1.1-0.4,1.7-0.4   c0.9,0,1.6,0.3,2.2,0.9c0.6,0.6,0.9,1.6,0.9,2.8v5.2h-2.2v-5c0-0.7-0.1-1.2-0.4-1.6c-0.3-0.4-0.7-0.6-1.3-0.6   c-0.4,0-0.8,0.1-1.1,0.4c-0.3,0.3-0.5,0.6-0.6,0.9c-0.1,0.2-0.1,0.4-0.1,0.7v5.2H590.7z"></path>
	<path class="st15" d="M604.3,249.2l0.5-1.8c0.9,0.5,1.9,0.8,2.9,0.8c0.7,0,1.2-0.1,1.6-0.4s0.6-0.7,0.6-1.2c0-0.5-0.2-0.8-0.5-1.1   c-0.3-0.3-0.9-0.6-1.6-0.9c-2.2-0.8-3.3-2-3.3-3.5c0-1,0.4-1.9,1.2-2.5c0.8-0.7,1.8-1,3.1-1c1.1,0,2.1,0.2,2.9,0.6l-0.5,1.8   c-0.7-0.4-1.6-0.6-2.4-0.6c-0.7,0-1.2,0.1-1.5,0.4c-0.3,0.3-0.5,0.6-0.5,1c0,0.4,0.2,0.8,0.5,1.1c0.3,0.3,0.9,0.6,1.8,0.9   c1.1,0.4,1.9,0.9,2.4,1.5c0.5,0.6,0.8,1.3,0.8,2.1c0,1-0.4,1.9-1.2,2.6c-0.8,0.7-1.9,1-3.4,1c-0.6,0-1.2-0.1-1.9-0.2   C605.1,249.6,604.7,249.4,604.3,249.2z"></path>
	<path class="st15" d="M621.6,246h-5.9c0,0.8,0.3,1.3,0.8,1.7s1.1,0.6,1.9,0.6c0.9,0,1.7-0.1,2.4-0.4l0.3,1.5   c-0.9,0.4-1.9,0.6-3.1,0.6c-1.4,0-2.5-0.4-3.3-1.2c-0.8-0.8-1.2-1.9-1.2-3.2c0-1.3,0.4-2.4,1.1-3.3c0.8-0.9,1.8-1.4,3.1-1.4   c0.7,0,1.3,0.1,1.8,0.4c0.5,0.3,0.9,0.6,1.2,1s0.5,0.9,0.6,1.4c0.1,0.5,0.2,1,0.2,1.5C621.7,245.5,621.7,245.8,621.6,246z    M615.8,244.5h3.9c0-0.5-0.1-1-0.4-1.5c-0.3-0.5-0.8-0.7-1.4-0.7c-0.6,0-1.1,0.2-1.4,0.7C616,243.5,615.8,244,615.8,244.5z"></path>
	<path class="st15" d="M623.5,253.4V244c0-0.8,0-1.8-0.1-2.9h1.9l0.1,1.4h0c0.7-1,1.7-1.5,3-1.5c1,0,1.9,0.4,2.6,1.2   c0.7,0.8,1.1,1.9,1.1,3.2c0,1.5-0.4,2.6-1.2,3.5c-0.8,0.8-1.7,1.2-2.8,1.2c-0.5,0-1-0.1-1.5-0.3c-0.4-0.2-0.8-0.5-1-0.9h0v4.5   H623.5z M625.7,244.8v1.4c0,0.2,0,0.4,0.1,0.6c0.1,0.5,0.4,0.8,0.7,1.1c0.4,0.3,0.8,0.4,1.2,0.4c0.7,0,1.2-0.3,1.6-0.8   c0.4-0.5,0.6-1.2,0.6-2.1c0-0.8-0.2-1.5-0.6-2c-0.4-0.5-0.9-0.8-1.6-0.8c-0.5,0-0.9,0.2-1.3,0.5c-0.4,0.3-0.6,0.7-0.7,1.2   C625.7,244.5,625.7,244.6,625.7,244.8z"></path>
	<path class="st15" d="M634.4,239.4l2.2-0.6v2.2h2.1v1.7h-2.1v3.9c0,0.6,0.1,1,0.3,1.2c0.2,0.3,0.5,0.4,0.9,0.4c0.4,0,0.6,0,0.9-0.1   l0,1.7c-0.4,0.2-0.9,0.2-1.6,0.2c-0.8,0-1.5-0.2-1.9-0.7c-0.5-0.5-0.7-1.3-0.7-2.5v-4.1h-1.2V241h1.2V239.4z"></path>
	<path class="st15" d="M645.7,243.8L645.7,243.8c-1.2-0.6-1.8-1.5-1.8-2.6c0-0.9,0.4-1.7,1.1-2.3c0.7-0.6,1.7-0.9,2.8-0.9   c1.2,0,2.1,0.3,2.7,0.9c0.6,0.6,0.9,1.3,0.9,2.1c0,0.5-0.1,1-0.4,1.5c-0.3,0.5-0.7,0.9-1.4,1.2v0.1c0.7,0.3,1.2,0.6,1.6,1.1   c0.4,0.5,0.6,1.1,0.6,1.8c0,1-0.4,1.9-1.2,2.5c-0.8,0.6-1.8,1-3.1,1c-1.3,0-2.3-0.3-3.1-1c-0.7-0.6-1.1-1.4-1.1-2.3   C643.5,245.4,644.2,244.4,645.7,243.8z M647.7,248.4c0.6,0,1-0.2,1.4-0.5s0.5-0.7,0.5-1.3c0-1.1-0.7-1.8-2.2-2.2   c-0.5,0.2-1,0.4-1.3,0.8c-0.3,0.4-0.5,0.8-0.5,1.3c0,0.5,0.1,1,0.5,1.4S647.1,248.4,647.7,248.4z M647.7,239.4   c-0.5,0-0.9,0.2-1.2,0.5c-0.3,0.3-0.5,0.7-0.5,1.1c0,0.9,0.6,1.5,1.9,1.8c0.4-0.1,0.8-0.3,1-0.7s0.4-0.7,0.4-1.1   c0-0.5-0.1-0.8-0.4-1.2C648.7,239.6,648.3,239.4,647.7,239.4z"></path>
	<path class="st15" d="M654.8,250c-0.4,0-0.7-0.1-1-0.4s-0.4-0.6-0.4-1c0-0.4,0.1-0.7,0.4-1s0.6-0.4,1-0.4c0.4,0,0.7,0.1,1,0.4   c0.3,0.3,0.4,0.6,0.4,1c0,0.4-0.1,0.7-0.4,1S655.2,250,654.8,250z"></path>
	<path class="st15" d="M416.1,279.8v-12c0.9-0.2,2.1-0.3,3.4-0.3c1.6,0,2.8,0.3,3.6,1c0.8,0.6,1.2,1.5,1.2,2.7c0,1.2-0.3,2.1-1,2.7   c-0.9,0.9-2.2,1.3-3.8,1.3c-0.5,0-0.8,0-1.1-0.1v4.6H416.1z M418.3,269.4v4.1c0.2,0.1,0.6,0.1,1.1,0.1c0.8,0,1.5-0.2,2-0.6   s0.7-0.9,0.7-1.6c0-0.7-0.2-1.2-0.6-1.5c-0.4-0.4-1-0.5-1.8-0.5C419.1,269.3,418.6,269.3,418.3,269.4z"></path>
	<path class="st15" d="M426.1,279.8V267h2.2v12.8H426.1z"></path>
	<path class="st15" d="M438.1,276h-5.9c0,0.8,0.3,1.3,0.8,1.7s1.1,0.6,1.9,0.6c0.9,0,1.7-0.1,2.4-0.4l0.3,1.5   c-0.9,0.4-1.9,0.6-3.1,0.6c-1.4,0-2.5-0.4-3.3-1.2c-0.8-0.8-1.2-1.9-1.2-3.2c0-1.3,0.4-2.4,1.1-3.3c0.8-0.9,1.8-1.4,3.1-1.4   c0.7,0,1.3,0.1,1.8,0.4c0.5,0.3,0.9,0.6,1.2,1s0.5,0.9,0.6,1.4c0.1,0.5,0.2,1,0.2,1.5C438.2,275.5,438.2,275.8,438.1,276z    M432.2,274.5h3.9c0-0.5-0.1-1-0.4-1.5c-0.3-0.5-0.8-0.7-1.4-0.7c-0.6,0-1.1,0.2-1.4,0.7C432.5,273.5,432.3,274,432.2,274.5z"></path>
	<path class="st15" d="M446.8,274.5v3.1c0,0.9,0,1.6,0.1,2.1h-2l-0.2-1h-0.1c-0.6,0.8-1.5,1.2-2.6,1.2c-0.8,0-1.5-0.3-2-0.8   c-0.5-0.5-0.7-1.1-0.7-1.8c0-1.1,0.5-1.9,1.4-2.5c0.9-0.6,2.2-0.8,3.8-0.8v-0.1c0-0.4-0.1-0.7-0.4-1.1c-0.3-0.3-0.7-0.5-1.4-0.5   c-0.9,0-1.7,0.2-2.4,0.6l-0.4-1.4c0.8-0.5,1.9-0.8,3.2-0.8c1.3,0,2.2,0.3,2.8,1C446.5,272.6,446.8,273.5,446.8,274.5z M444.6,276.7   v-1.2c-2,0-3.1,0.5-3.1,1.6c0,0.4,0.1,0.7,0.4,0.9s0.5,0.3,0.9,0.3c0.4,0,0.8-0.1,1.1-0.4c0.3-0.2,0.5-0.5,0.6-0.9   C444.6,277.1,444.6,276.9,444.6,276.7z"></path>
	<path class="st15" d="M448.6,279.4l0.5-1.6c0.7,0.4,1.4,0.6,2.2,0.6c0.9,0,1.4-0.3,1.4-1c0-0.3-0.1-0.5-0.3-0.7   c-0.2-0.2-0.6-0.4-1.1-0.6c-1.6-0.5-2.4-1.4-2.4-2.6c0-0.8,0.3-1.4,0.9-2s1.4-0.8,2.4-0.8c0.9,0,1.7,0.2,2.3,0.5l-0.5,1.5   c-0.6-0.3-1.2-0.5-1.9-0.5c-0.4,0-0.7,0.1-0.9,0.3c-0.2,0.2-0.3,0.4-0.3,0.7c0,0.3,0.1,0.5,0.3,0.6c0.2,0.2,0.6,0.4,1.2,0.6   c0.8,0.3,1.4,0.6,1.8,1.1c0.4,0.4,0.6,1,0.6,1.6c0,0.8-0.3,1.5-0.9,2c-0.6,0.5-1.5,0.8-2.6,0.8C450.2,280,449.3,279.8,448.6,279.4z   "></path>
	<path class="st15" d="M464,276h-5.9c0,0.8,0.3,1.3,0.8,1.7s1.1,0.6,1.9,0.6c0.9,0,1.7-0.1,2.4-0.4l0.3,1.5   c-0.9,0.4-1.9,0.6-3.1,0.6c-1.4,0-2.5-0.4-3.3-1.2c-0.8-0.8-1.2-1.9-1.2-3.2c0-1.3,0.4-2.4,1.1-3.3c0.8-0.9,1.8-1.4,3.1-1.4   c0.7,0,1.3,0.1,1.8,0.4c0.5,0.3,0.9,0.6,1.2,1s0.5,0.9,0.6,1.4c0.1,0.5,0.2,1,0.2,1.5C464.1,275.5,464.1,275.8,464,276z    M458.2,274.5h3.9c0-0.5-0.1-1-0.4-1.5c-0.3-0.5-0.8-0.7-1.4-0.7c-0.6,0-1.1,0.2-1.4,0.7C458.4,273.5,458.2,274,458.2,274.5z"></path>
	<path class="st15" d="M469.6,279.8v-5.9c0-1.2,0-2.1-0.1-2.8h1.9l0.1,1.7h0.1c0.2-0.6,0.5-1,1-1.4c0.5-0.3,0.9-0.5,1.4-0.5   c0.2,0,0.3,0,0.5,0.1v2.1c-0.2,0-0.4-0.1-0.7-0.1c-0.5,0-1,0.2-1.3,0.5s-0.6,0.7-0.7,1.2c0,0.2-0.1,0.4-0.1,0.7v4.6H469.6z"></path>
	<path class="st15" d="M483.3,276h-5.9c0,0.8,0.3,1.3,0.8,1.7s1.1,0.6,1.9,0.6c0.9,0,1.7-0.1,2.4-0.4l0.3,1.5   c-0.9,0.4-1.9,0.6-3.1,0.6c-1.4,0-2.5-0.4-3.3-1.2c-0.8-0.8-1.2-1.9-1.2-3.2c0-1.3,0.4-2.4,1.1-3.3c0.8-0.9,1.8-1.4,3.1-1.4   c0.7,0,1.3,0.1,1.8,0.4c0.5,0.3,0.9,0.6,1.2,1s0.5,0.9,0.6,1.4c0.1,0.5,0.2,1,0.2,1.5C483.4,275.5,483.4,275.8,483.3,276z    M477.4,274.5h3.9c0-0.5-0.1-1-0.4-1.5c-0.3-0.5-0.8-0.7-1.4-0.7c-0.6,0-1.1,0.2-1.4,0.7C477.7,273.5,477.5,274,477.4,274.5z"></path>
	<path class="st15" d="M485.2,283.4V274c0-0.8,0-1.8-0.1-2.9h1.9l0.1,1.4h0c0.7-1,1.7-1.5,3-1.5c1,0,1.9,0.4,2.6,1.2   c0.7,0.8,1.1,1.9,1.1,3.2c0,1.5-0.4,2.6-1.2,3.5c-0.8,0.8-1.7,1.2-2.8,1.2c-0.5,0-1-0.1-1.5-0.3c-0.4-0.2-0.8-0.5-1-0.9h0v4.5   H485.2z M487.4,274.8v1.4c0,0.2,0,0.4,0.1,0.6c0.1,0.5,0.4,0.8,0.7,1.1c0.4,0.3,0.8,0.4,1.2,0.4c0.7,0,1.2-0.3,1.6-0.8   c0.4-0.5,0.6-1.2,0.6-2.1c0-0.8-0.2-1.5-0.6-2c-0.4-0.5-0.9-0.8-1.6-0.8c-0.5,0-0.9,0.2-1.3,0.5c-0.4,0.3-0.6,0.7-0.7,1.2   C487.4,274.5,487.4,274.6,487.4,274.8z"></path>
	<path class="st15" d="M495.7,279.8V267h2.2v12.8H495.7z"></path>
	<path class="st15" d="M499.3,271h2.4l1.6,4.7c0.2,0.6,0.4,1.2,0.5,1.7h0.1c0.2-0.9,0.4-1.4,0.5-1.7l1.4-4.7h2.4l-2.2,6   c-0.6,1.6-1.1,2.9-1.6,3.7c-0.5,0.8-0.9,1.5-1.5,1.9c-0.7,0.6-1.5,1-2.3,1.1l-0.5-1.9c0.4-0.1,0.9-0.3,1.3-0.6   c0.5-0.3,0.9-0.8,1.2-1.4c0.1-0.2,0.1-0.3,0.1-0.4c0-0.1,0-0.3-0.1-0.4L499.3,271z"></path>
	<path class="st15" d="M517.3,279.8h-2.2v-5.1l-3.8-7.1h2.5l1.4,3.1c0.4,0.9,0.8,1.7,1.1,2.4h0c0.2-0.6,0.6-1.4,1-2.4l1.5-3.1h2.5   l-4,7V279.8z"></path>
	<path class="st15" d="M529.3,272.6v1.8h-4.6v3.6h5.1v1.8h-7.3v-12.1h7.1v1.8h-4.8v3.1H529.3z"></path>
	<path class="st15" d="M531.2,279.2l0.5-1.8c0.9,0.5,1.9,0.8,2.9,0.8c0.7,0,1.2-0.1,1.6-0.4s0.6-0.7,0.6-1.2c0-0.5-0.2-0.8-0.5-1.1   c-0.3-0.3-0.9-0.6-1.6-0.9c-2.2-0.8-3.3-2-3.3-3.5c0-1,0.4-1.9,1.2-2.5c0.8-0.7,1.8-1,3.1-1c1.1,0,2.1,0.2,2.9,0.6l-0.5,1.8   c-0.7-0.4-1.6-0.6-2.4-0.6c-0.7,0-1.2,0.1-1.5,0.4c-0.3,0.3-0.5,0.6-0.5,1c0,0.4,0.2,0.8,0.5,1.1c0.3,0.3,0.9,0.6,1.8,0.9   c1.1,0.4,1.9,0.9,2.4,1.5c0.5,0.6,0.8,1.3,0.8,2.1c0,1-0.4,1.9-1.2,2.6c-0.8,0.7-1.9,1-3.4,1c-0.6,0-1.2-0.1-1.9-0.2   C532,279.6,531.6,279.4,531.2,279.2z"></path>
	<path class="st15" d="M545.1,269.4l2.2-0.6v2.2h2.1v1.7h-2.1v3.9c0,0.6,0.1,1,0.3,1.2c0.2,0.3,0.5,0.4,0.9,0.4c0.4,0,0.6,0,0.9-0.1   l0,1.7c-0.4,0.2-0.9,0.2-1.6,0.2c-0.8,0-1.5-0.2-1.9-0.7c-0.5-0.5-0.7-1.3-0.7-2.5v-4.1h-1.2V271h1.2V269.4z"></path>
	<path class="st15" d="M554.9,270.8c1.3,0,2.3,0.4,3.2,1.3c0.8,0.8,1.2,1.9,1.2,3.2c0,1.5-0.4,2.7-1.3,3.5c-0.9,0.8-1.9,1.2-3.2,1.2   c-1.3,0-2.3-0.4-3.2-1.2s-1.2-1.9-1.2-3.3c0-1.4,0.4-2.5,1.3-3.4C552.5,271.3,553.6,270.8,554.9,270.8z M554.9,272.4   c-0.7,0-1.3,0.3-1.6,0.9s-0.5,1.3-0.5,2.1c0,0.9,0.2,1.6,0.6,2.1c0.4,0.6,0.9,0.8,1.6,0.8c0.6,0,1.2-0.3,1.5-0.8   c0.4-0.6,0.6-1.3,0.6-2.2c0-0.8-0.2-1.5-0.5-2.1C556.1,272.7,555.6,272.4,554.9,272.4z"></path>
	<path class="st15" d="M571,277.9l0.3,1.6c-0.6,0.3-1.5,0.5-2.5,0.5c-1.4,0-2.5-0.4-3.3-1.2c-0.8-0.8-1.2-1.9-1.2-3.3   s0.4-2.5,1.3-3.3c0.9-0.9,2.1-1.3,3.6-1.3c0.8,0,1.5,0.1,2.1,0.4l-0.4,1.7c-0.5-0.2-1-0.3-1.7-0.3c-0.8,0-1.5,0.3-2,0.8   c-0.5,0.5-0.7,1.2-0.7,2c0,0.9,0.3,1.6,0.8,2.1c0.5,0.5,1.1,0.8,1.9,0.8C569.8,278.2,570.4,278.1,571,277.9z"></path>
	<path class="st15" d="M576.7,270.8c1.3,0,2.3,0.4,3.2,1.3c0.8,0.8,1.2,1.9,1.2,3.2c0,1.5-0.4,2.7-1.3,3.5c-0.9,0.8-1.9,1.2-3.2,1.2   c-1.3,0-2.3-0.4-3.2-1.2s-1.2-1.9-1.2-3.3c0-1.4,0.4-2.5,1.3-3.4C574.3,271.3,575.4,270.8,576.7,270.8z M576.7,272.4   c-0.7,0-1.3,0.3-1.6,0.9s-0.5,1.3-0.5,2.1c0,0.9,0.2,1.6,0.6,2.1c0.4,0.6,0.9,0.8,1.6,0.8c0.6,0,1.2-0.3,1.5-0.8   c0.4-0.6,0.6-1.3,0.6-2.2c0-0.8-0.2-1.5-0.5-2.1C577.9,272.7,577.4,272.4,576.7,272.4z"></path>
	<path class="st15" d="M582.9,279.8v-6.2c0-0.7,0-1.6-0.1-2.6h1.9l0.1,1.3h0.1c0.2-0.4,0.6-0.8,1.1-1.1c0.5-0.3,1.1-0.4,1.7-0.4   c0.9,0,1.6,0.3,2.2,0.9c0.6,0.6,0.9,1.6,0.9,2.8v5.2h-2.2v-5c0-0.7-0.1-1.2-0.4-1.6c-0.3-0.4-0.7-0.6-1.3-0.6   c-0.4,0-0.8,0.1-1.1,0.4c-0.3,0.3-0.5,0.6-0.6,0.9c-0.1,0.2-0.1,0.4-0.1,0.7v5.2H582.9z"></path>
	<path class="st15" d="M595.6,279.8h-2.2v-7.1h-1.2V271h1.2v-0.4c0-1.2,0.4-2.1,1.1-2.8c0.8-0.7,1.8-1,3.1-1c1,0,1.9,0.2,2.4,0.6   l-0.5,1.7c-0.5-0.3-1.2-0.5-1.9-0.5c-1.4,0-2,0.7-2,2.1v0.4h5.2v8.8h-2.2v-7.1h-3V279.8z"></path>
	<path class="st15" d="M603.2,279.8v-5.9c0-1.2,0-2.1-0.1-2.8h1.9l0.1,1.7h0.1c0.2-0.6,0.5-1,1-1.4c0.4-0.3,0.9-0.5,1.4-0.5   c0.2,0,0.3,0,0.5,0.1v2.1c-0.2,0-0.4-0.1-0.7-0.1c-0.5,0-1,0.2-1.3,0.5s-0.6,0.7-0.7,1.2c0,0.2-0.1,0.4-0.1,0.7v4.6H603.2z"></path>
	<path class="st15" d="M609.7,279.8v-6.2c0-0.7,0-1.6-0.1-2.6h1.9l0.1,1.3h0.1c0.6-1,1.5-1.5,2.7-1.5c0.6,0,1.1,0.1,1.5,0.4   c0.4,0.3,0.7,0.7,0.9,1.2h0c0.3-0.5,0.7-0.8,1.1-1.1c0.5-0.3,1.1-0.5,1.8-0.5c0.8,0,1.5,0.3,2.1,0.9c0.6,0.6,0.8,1.6,0.8,2.9v5.2   h-2.2V275c0-1.5-0.5-2.3-1.6-2.3c-0.4,0-0.7,0.1-1,0.3c-0.3,0.2-0.5,0.5-0.6,0.8c-0.1,0.2-0.1,0.4-0.1,0.7v5.3H615v-5.1   c0-0.6-0.1-1.1-0.4-1.5s-0.6-0.6-1.1-0.6c-0.4,0-0.7,0.1-1,0.4c-0.3,0.2-0.5,0.5-0.6,0.9c-0.1,0.2-0.1,0.5-0.1,0.7v5.2H609.7z"></path>
	<path class="st15" d="M632.6,270.8c1.3,0,2.3,0.4,3.2,1.3c0.8,0.8,1.2,1.9,1.2,3.2c0,1.5-0.4,2.7-1.3,3.5c-0.9,0.8-1.9,1.2-3.2,1.2   c-1.3,0-2.3-0.4-3.2-1.2s-1.2-1.9-1.2-3.3c0-1.4,0.4-2.5,1.3-3.4C630.2,271.3,631.3,270.8,632.6,270.8z M632.6,272.4   c-0.7,0-1.3,0.3-1.6,0.9s-0.5,1.3-0.5,2.1c0,0.9,0.2,1.6,0.6,2.1c0.4,0.6,0.9,0.8,1.6,0.8c0.6,0,1.2-0.3,1.5-0.8   c0.4-0.6,0.6-1.3,0.6-2.2c0-0.8-0.2-1.5-0.5-2.1C633.8,272.7,633.3,272.4,632.6,272.4z"></path>
	<path class="st15" d="M638.8,279.8v-5.9c0-1.2,0-2.1-0.1-2.8h1.9l0.1,1.7h0.1c0.2-0.6,0.5-1,1-1.4c0.4-0.3,0.9-0.5,1.4-0.5   c0.2,0,0.3,0,0.5,0.1v2.1c-0.2,0-0.4-0.1-0.7-0.1c-0.5,0-1,0.2-1.3,0.5s-0.6,0.7-0.7,1.2c0,0.2-0.1,0.4-0.1,0.7v4.6H638.8z"></path>
	<path class="st15" d="M655.1,277.9l0.3,1.6c-0.6,0.3-1.5,0.5-2.5,0.5c-1.4,0-2.5-0.4-3.3-1.2c-0.8-0.8-1.2-1.9-1.2-3.3   s0.4-2.5,1.3-3.3c0.9-0.9,2.1-1.3,3.6-1.3c0.8,0,1.5,0.1,2.1,0.4l-0.4,1.7c-0.5-0.2-1-0.3-1.7-0.3c-0.8,0-1.5,0.3-2,0.8   c-0.5,0.5-0.7,1.2-0.7,2c0,0.9,0.3,1.6,0.8,2.1c0.5,0.5,1.1,0.8,1.9,0.8C653.9,278.2,654.5,278.1,655.1,277.9z"></path>
	<path class="st15" d="M663.8,274.5v3.1c0,0.9,0,1.6,0.1,2.1h-2l-0.2-1h-0.1c-0.6,0.8-1.5,1.2-2.6,1.2c-0.8,0-1.5-0.3-2-0.8   c-0.5-0.5-0.7-1.1-0.7-1.8c0-1.1,0.5-1.9,1.4-2.5c0.9-0.6,2.2-0.8,3.8-0.8v-0.1c0-0.4-0.1-0.7-0.4-1.1c-0.3-0.3-0.7-0.5-1.4-0.5   c-0.9,0-1.7,0.2-2.4,0.6l-0.4-1.4c0.8-0.5,1.9-0.8,3.2-0.8c1.3,0,2.2,0.3,2.8,1C663.5,272.6,663.8,273.5,663.8,274.5z M661.7,276.7   v-1.2c-2,0-3.1,0.5-3.1,1.6c0,0.4,0.1,0.7,0.4,0.9s0.5,0.3,0.9,0.3c0.4,0,0.8-0.1,1.1-0.4c0.3-0.2,0.5-0.5,0.6-0.9   C661.6,277.1,661.7,276.9,661.7,276.7z"></path>
	<path class="st15" d="M666.2,279.8V267h2.2v12.8H666.2z"></path>
	<path class="st15" d="M670.8,279.8V267h2.2v12.8H670.8z"></path>
	<path class="st15" d="M423.9,301v6.1c0,0.8,0,1.7,0.1,2.6H422l-0.1-1.3h-0.1c-0.6,1-1.6,1.5-2.8,1.5c-0.9,0-1.6-0.3-2.2-0.9   c-0.6-0.6-0.9-1.6-0.9-2.9V301h2.2v4.8c0,1.6,0.5,2.4,1.6,2.4c0.4,0,0.8-0.1,1.1-0.4c0.3-0.2,0.5-0.5,0.6-0.8   c0.1-0.2,0.1-0.4,0.1-0.7V301H423.9z"></path>
	<path class="st15" d="M425.7,309.4l0.5-1.6c0.7,0.4,1.4,0.6,2.2,0.6c0.9,0,1.4-0.3,1.4-1c0-0.3-0.1-0.5-0.3-0.7   c-0.2-0.2-0.6-0.4-1.1-0.6c-1.6-0.5-2.4-1.4-2.4-2.6c0-0.8,0.3-1.4,0.9-2c0.6-0.5,1.4-0.8,2.4-0.8c0.9,0,1.7,0.2,2.3,0.5l-0.5,1.5   c-0.6-0.3-1.2-0.5-1.9-0.5c-0.4,0-0.7,0.1-0.9,0.3c-0.2,0.2-0.3,0.4-0.3,0.7c0,0.3,0.1,0.5,0.3,0.6c0.2,0.2,0.6,0.4,1.2,0.6   c0.8,0.3,1.4,0.6,1.8,1.1s0.6,1,0.6,1.6c0,0.8-0.3,1.5-0.9,2s-1.5,0.8-2.6,0.8C427.4,310,426.5,309.8,425.7,309.4z"></path>
	<path class="st15" d="M437.9,299.4l2.2-0.6v2.2h2.1v1.7h-2.1v3.9c0,0.6,0.1,1,0.3,1.2c0.2,0.3,0.5,0.4,0.9,0.4c0.4,0,0.6,0,0.9-0.1   l0,1.7c-0.4,0.2-0.9,0.2-1.6,0.2c-0.8,0-1.5-0.2-1.9-0.7c-0.5-0.5-0.7-1.3-0.7-2.5v-4.1h-1.2V301h1.2V299.4z"></path>
	<path class="st15" d="M447.7,300.8c1.3,0,2.3,0.4,3.1,1.3c0.8,0.8,1.2,1.9,1.2,3.2c0,1.5-0.4,2.7-1.3,3.5s-1.9,1.2-3.2,1.2   c-1.3,0-2.3-0.4-3.1-1.2c-0.8-0.8-1.2-1.9-1.2-3.3c0-1.4,0.4-2.5,1.3-3.4C445.3,301.3,446.4,300.8,447.7,300.8z M447.7,302.4   c-0.7,0-1.3,0.3-1.6,0.9c-0.4,0.6-0.5,1.3-0.5,2.1c0,0.9,0.2,1.6,0.6,2.1c0.4,0.6,0.9,0.8,1.6,0.8c0.6,0,1.2-0.3,1.5-0.8   c0.4-0.6,0.6-1.3,0.6-2.2c0-0.8-0.2-1.5-0.5-2.1C448.9,302.7,448.3,302.4,447.7,302.4z"></path>
	<path class="st15" d="M457.6,309.8v-5.9c0-1.2,0-2.1-0.1-2.8h1.9l0.1,1.7h0.1c0.2-0.6,0.5-1,1-1.4c0.5-0.3,0.9-0.5,1.4-0.5   c0.2,0,0.3,0,0.5,0.1v2.1c-0.2,0-0.4-0.1-0.7-0.1c-0.5,0-1,0.1-1.3,0.4c-0.4,0.3-0.6,0.7-0.7,1.2c0,0.2-0.1,0.4-0.1,0.7v4.6H457.6z   "></path>
	<path class="st15" d="M471.3,306h-5.9c0,0.8,0.3,1.3,0.8,1.7c0.5,0.4,1.1,0.6,1.9,0.6c0.9,0,1.7-0.1,2.4-0.4l0.3,1.5   c-0.9,0.4-1.9,0.6-3.1,0.6c-1.4,0-2.5-0.4-3.3-1.2c-0.8-0.8-1.2-1.9-1.2-3.2c0-1.3,0.4-2.4,1.1-3.3c0.8-0.9,1.8-1.4,3.1-1.4   c0.7,0,1.3,0.1,1.8,0.4c0.5,0.3,0.9,0.6,1.2,1s0.5,0.9,0.6,1.4c0.1,0.5,0.2,1,0.2,1.5C471.4,305.5,471.3,305.8,471.3,306z    M465.4,304.5h3.9c0-0.5-0.1-1-0.4-1.5c-0.3-0.4-0.8-0.7-1.4-0.7c-0.6,0-1.1,0.2-1.4,0.7C465.7,303.5,465.5,304,465.4,304.5z"></path>
	<path class="st15" d="M472.6,309.4l0.5-1.6c0.7,0.4,1.4,0.6,2.2,0.6c0.9,0,1.4-0.3,1.4-1c0-0.3-0.1-0.5-0.3-0.7   c-0.2-0.2-0.6-0.4-1.1-0.6c-1.6-0.5-2.4-1.4-2.4-2.6c0-0.8,0.3-1.4,0.9-2c0.6-0.5,1.4-0.8,2.4-0.8c0.9,0,1.7,0.2,2.3,0.5l-0.5,1.5   c-0.6-0.3-1.2-0.5-1.9-0.5c-0.4,0-0.7,0.1-0.9,0.3c-0.2,0.2-0.3,0.4-0.3,0.7c0,0.3,0.1,0.5,0.3,0.6c0.2,0.2,0.6,0.4,1.2,0.6   c0.8,0.3,1.4,0.6,1.8,1.1s0.6,1,0.6,1.6c0,0.8-0.3,1.5-0.9,2s-1.5,0.8-2.6,0.8C474.2,310,473.3,309.8,472.6,309.4z"></path>
	<path class="st15" d="M486.8,307.9l0.3,1.6c-0.6,0.3-1.5,0.4-2.5,0.4c-1.4,0-2.5-0.4-3.3-1.2s-1.2-1.9-1.2-3.3   c0-1.4,0.4-2.5,1.3-3.3c0.9-0.9,2.1-1.3,3.6-1.3c0.8,0,1.5,0.1,2.1,0.4l-0.4,1.7c-0.5-0.2-1-0.3-1.7-0.3c-0.8,0-1.5,0.3-2,0.8   c-0.5,0.5-0.7,1.2-0.7,2c0,0.9,0.3,1.6,0.8,2.1c0.5,0.5,1.1,0.8,1.9,0.8C485.6,308.2,486.2,308.1,486.8,307.9z"></path>
	<path class="st15" d="M488.7,309.8V297h2.2v5.2h0c0.3-0.4,0.6-0.8,1.1-1c0.5-0.3,1-0.4,1.5-0.4c0.9,0,1.6,0.3,2.2,0.9   c0.6,0.6,0.9,1.6,0.9,2.9v5.2h-2.2v-4.9c0-0.7-0.1-1.2-0.4-1.6c-0.3-0.4-0.7-0.6-1.3-0.6c-0.4,0-0.8,0.1-1.1,0.4   c-0.3,0.2-0.5,0.5-0.7,0.9c-0.1,0.2-0.1,0.4-0.1,0.7v5.3H488.7z"></path>
	<path class="st15" d="M506.5,306h-5.9c0,0.8,0.3,1.3,0.8,1.7c0.5,0.4,1.1,0.6,1.9,0.6c0.9,0,1.7-0.1,2.4-0.4l0.3,1.5   c-0.9,0.4-1.9,0.6-3.1,0.6c-1.4,0-2.5-0.4-3.3-1.2c-0.8-0.8-1.2-1.9-1.2-3.2c0-1.3,0.4-2.4,1.1-3.3s1.8-1.4,3.1-1.4   c0.7,0,1.3,0.1,1.8,0.4c0.5,0.3,0.9,0.6,1.2,1c0.3,0.4,0.5,0.9,0.6,1.4c0.1,0.5,0.2,1,0.2,1.5C506.5,305.5,506.5,305.8,506.5,306z    M500.6,304.5h3.9c0-0.5-0.1-1-0.4-1.5c-0.3-0.4-0.8-0.7-1.4-0.7c-0.6,0-1.1,0.2-1.4,0.7C500.8,303.5,500.6,304,500.6,304.5z"></path>
	<path class="st15" d="M514.2,297h2.2v10.3c0,0.9,0,1.7,0.1,2.5h-2l-0.1-1.4h0c-0.3,0.5-0.6,0.9-1.2,1.2c-0.5,0.3-1.1,0.4-1.7,0.4   c-1.1,0-2-0.4-2.7-1.2s-1.1-1.9-1.1-3.2c0-1.4,0.4-2.5,1.1-3.4c0.8-0.9,1.7-1.3,2.8-1.3c0.6,0,1.1,0.1,1.5,0.3   c0.4,0.2,0.7,0.5,1,0.8h0V297z M514.2,306v-1.3c0-0.2,0-0.4-0.1-0.6c-0.1-0.4-0.3-0.8-0.7-1.1c-0.3-0.3-0.8-0.4-1.2-0.4   c-0.7,0-1.2,0.3-1.6,0.8s-0.6,1.2-0.6,2.1c0,0.8,0.2,1.5,0.6,2c0.4,0.5,0.9,0.8,1.6,0.8c0.5,0,0.9-0.1,1.2-0.4   c0.4-0.3,0.6-0.7,0.7-1.1C514.2,306.5,514.2,306.3,514.2,306z"></path>
	<path class="st15" d="M526.6,301v6.1c0,0.8,0,1.7,0.1,2.6h-1.9l-0.1-1.3h-0.1c-0.6,1-1.6,1.5-2.8,1.5c-0.9,0-1.6-0.3-2.2-0.9   c-0.6-0.6-0.9-1.6-0.9-2.9V301h2.2v4.8c0,1.6,0.5,2.4,1.6,2.4c0.4,0,0.8-0.1,1.1-0.4c0.3-0.2,0.5-0.5,0.6-0.8   c0.1-0.2,0.1-0.4,0.1-0.7V301H526.6z"></path>
	<path class="st15" d="M529,309.8V297h2.2v12.8H529z"></path>
	<path class="st15" d="M541.1,306h-5.9c0,0.8,0.3,1.3,0.8,1.7c0.5,0.4,1.1,0.6,1.9,0.6c0.9,0,1.7-0.1,2.4-0.4l0.3,1.5   c-0.9,0.4-1.9,0.6-3.1,0.6c-1.4,0-2.5-0.4-3.3-1.2s-1.2-1.9-1.2-3.2c0-1.3,0.4-2.4,1.1-3.3c0.8-0.9,1.8-1.4,3.1-1.4   c0.7,0,1.3,0.1,1.8,0.4c0.5,0.3,0.9,0.6,1.2,1s0.5,0.9,0.6,1.4c0.1,0.5,0.2,1,0.2,1.5C541.1,305.5,541.1,305.8,541.1,306z    M535.2,304.5h3.9c0-0.5-0.1-1-0.4-1.5c-0.3-0.4-0.8-0.7-1.4-0.7c-0.6,0-1.1,0.2-1.4,0.7C535.5,303.5,535.3,304,535.2,304.5z"></path>
	<path class="st15" d="M543.8,310c-0.4,0-0.7-0.1-1-0.4c-0.3-0.3-0.4-0.6-0.4-1s0.1-0.7,0.4-1c0.3-0.3,0.6-0.4,1-0.4   c0.4,0,0.7,0.1,1,0.4s0.4,0.6,0.4,1c0,0.4-0.1,0.7-0.4,1C544.5,309.9,544.2,310,543.8,310z"></path>
</g>
<g>
	<path class="st5" d="M394.6,546.5v-106c0-4.7,3.8-8.7,8.7-8.7h282.5c4.7,0,8.7,3.8,8.7,8.7v28l15.9,15.9l-15.9,16.1v46.1   c0,4.7-3.8,8.7-8.7,8.7H403.6C398.6,555.2,394.6,551.3,394.6,546.5z"></path>
	<path class="st12" d="M394.6,546.5v-106c0-4.7,3.8-8.7,8.7-8.7h282.5c4.7,0,8.7,3.8,8.7,8.7v28l15.9,15.9l-15.9,16.1v46.1   c0,4.7-3.8,8.7-8.7,8.7H403.6C398.6,555.2,394.6,551.3,394.6,546.5z"></path>
</g>
<g>
	<path class="st15" d="M418.5,469.8v-10.3H415v-1.9h9.2v1.9h-3.5v10.3H418.5z"></path>
	<path class="st15" d="M425.3,469.8V457h2.2v5.2h0c0.3-0.4,0.6-0.7,1.1-1c0.5-0.3,1-0.4,1.5-0.4c0.9,0,1.6,0.3,2.2,0.9   c0.6,0.6,0.9,1.6,0.9,2.9v5.2H431v-4.9c0-0.7-0.1-1.2-0.4-1.6c-0.3-0.4-0.7-0.6-1.3-0.6c-0.4,0-0.8,0.1-1.1,0.4   c-0.3,0.2-0.5,0.5-0.7,0.9c-0.1,0.2-0.1,0.4-0.1,0.7v5.3H425.3z"></path>
	<path class="st15" d="M442.4,464.5v3.2c0,0.9,0,1.6,0.1,2.1h-2l-0.2-1h-0.1c-0.6,0.8-1.5,1.2-2.6,1.2c-0.8,0-1.5-0.3-2-0.8   c-0.5-0.5-0.7-1.1-0.7-1.8c0-1.1,0.5-1.9,1.4-2.5s2.2-0.8,3.8-0.8v-0.1c0-0.4-0.1-0.7-0.4-1.1c-0.3-0.3-0.7-0.5-1.4-0.5   c-0.9,0-1.7,0.2-2.4,0.6l-0.4-1.4c0.8-0.5,1.9-0.8,3.2-0.8c1.3,0,2.2,0.3,2.8,1C442.1,462.6,442.4,463.5,442.4,464.5z M440.3,466.7   v-1.2c-2,0-3.1,0.5-3.1,1.6c0,0.4,0.1,0.7,0.4,0.9s0.5,0.3,0.9,0.3c0.4,0,0.8-0.1,1.1-0.4c0.3-0.2,0.5-0.5,0.6-0.9   C440.2,467.1,440.3,466.9,440.3,466.7z"></path>
	<path class="st15" d="M444.8,469.8v-6.2c0-0.7,0-1.6-0.1-2.6h1.9l0.1,1.3h0.1c0.2-0.4,0.6-0.8,1.1-1.1c0.5-0.3,1.1-0.5,1.7-0.5   c0.9,0,1.6,0.3,2.2,0.9s0.9,1.6,0.9,2.8v5.2h-2.2v-5c0-0.7-0.1-1.2-0.4-1.6s-0.7-0.6-1.3-0.6c-0.4,0-0.8,0.1-1.1,0.4   c-0.3,0.3-0.5,0.6-0.6,0.9c-0.1,0.2-0.1,0.4-0.1,0.7v5.2H444.8z"></path>
	<path class="st15" d="M457.3,457v7.9h0c0.2-0.4,0.5-0.7,0.7-1l2.1-2.8h2.7l-3.3,3.6l3.7,5.2h-2.7l-2.5-3.9l-0.7,0.9v3H455V457   H457.3z"></path>
	<path class="st15" d="M466.9,461h2.4l1.6,4.7c0.2,0.6,0.4,1.2,0.5,1.7h0.1c0.2-0.9,0.4-1.4,0.5-1.7l1.4-4.7h2.4l-2.2,6   c-0.6,1.6-1.1,2.9-1.6,3.7s-0.9,1.5-1.5,1.9c-0.7,0.6-1.5,1-2.3,1.1l-0.5-1.9c0.4-0.1,0.9-0.3,1.3-0.6c0.5-0.3,0.9-0.8,1.2-1.4   c0.1-0.2,0.1-0.3,0.1-0.4c0-0.1,0-0.3-0.1-0.4L466.9,461z"></path>
	<path class="st15" d="M480.7,460.8c1.3,0,2.3,0.4,3.1,1.3c0.8,0.8,1.2,1.9,1.2,3.2c0,1.5-0.4,2.7-1.3,3.5c-0.9,0.8-1.9,1.2-3.2,1.2   c-1.3,0-2.3-0.4-3.1-1.2c-0.8-0.8-1.2-1.9-1.2-3.3c0-1.4,0.4-2.5,1.3-3.4C478.2,461.3,479.3,460.8,480.7,460.8z M480.6,462.4   c-0.7,0-1.3,0.3-1.6,0.9s-0.5,1.3-0.5,2.1c0,0.9,0.2,1.6,0.6,2.1c0.4,0.6,0.9,0.8,1.6,0.8c0.6,0,1.2-0.3,1.5-0.8   c0.4-0.6,0.6-1.3,0.6-2.2c0-0.8-0.2-1.5-0.5-2.1C481.9,462.7,481.3,462.4,480.6,462.4z"></path>
	<path class="st15" d="M494.7,461v6.1c0,0.8,0,1.7,0.1,2.6h-1.9l-0.1-1.3h-0.1c-0.6,1-1.6,1.5-2.8,1.5c-0.9,0-1.6-0.3-2.2-0.9   c-0.6-0.6-0.9-1.6-0.9-2.9V461h2.2v4.8c0,1.6,0.5,2.4,1.6,2.4c0.4,0,0.8-0.1,1.1-0.4c0.3-0.2,0.5-0.5,0.6-0.8   c0.1-0.2,0.1-0.4,0.1-0.7V461H494.7z"></path>
	<path class="st15" d="M503.3,469.8h-2.2v-7.1h-1.2V461h1.2v-0.4c0-1.3,0.4-2.3,1.1-3c0.6-0.6,1.4-0.8,2.3-0.8   c0.5,0,0.9,0.1,1.4,0.2l-0.1,1.7c-0.3-0.1-0.6-0.2-1-0.2c-1,0-1.5,0.7-1.5,2v0.5h1.9v1.7h-1.9V469.8z"></path>
	<path class="st15" d="M510.3,460.8c1.3,0,2.3,0.4,3.2,1.3c0.8,0.8,1.2,1.9,1.2,3.2c0,1.5-0.4,2.7-1.3,3.5c-0.9,0.8-1.9,1.2-3.2,1.2   c-1.3,0-2.3-0.4-3.2-1.2c-0.8-0.8-1.2-1.9-1.2-3.3c0-1.4,0.4-2.5,1.3-3.4C507.9,461.3,509,460.8,510.3,460.8z M510.3,462.4   c-0.7,0-1.3,0.3-1.6,0.9s-0.5,1.3-0.5,2.1c0,0.9,0.2,1.6,0.6,2.1c0.4,0.6,0.9,0.8,1.6,0.8c0.6,0,1.2-0.3,1.5-0.8   c0.4-0.6,0.6-1.3,0.6-2.2c0-0.8-0.2-1.5-0.5-2.1C511.5,462.7,511,462.4,510.3,462.4z"></path>
	<path class="st15" d="M516.5,469.8v-5.9c0-1.2,0-2.1-0.1-2.8h1.9l0.1,1.7h0.1c0.2-0.6,0.5-1,1-1.4c0.4-0.3,0.9-0.5,1.4-0.5   c0.2,0,0.3,0,0.5,0.1v2.1c-0.2,0-0.4-0.1-0.7-0.1c-0.5,0-1,0.2-1.3,0.5s-0.6,0.7-0.7,1.2c0,0.2-0.1,0.4-0.1,0.7v4.6H516.5z"></path>
	<path class="st15" d="M532.8,467.9l0.3,1.6c-0.6,0.3-1.5,0.5-2.5,0.5c-1.4,0-2.5-0.4-3.3-1.2c-0.8-0.8-1.2-1.9-1.2-3.3   c0-1.4,0.4-2.5,1.3-3.3c0.9-0.9,2.1-1.3,3.6-1.3c0.8,0,1.5,0.1,2.1,0.4l-0.4,1.7c-0.5-0.2-1-0.3-1.7-0.3c-0.8,0-1.5,0.3-2,0.8   c-0.5,0.5-0.7,1.2-0.7,2c0,0.9,0.3,1.6,0.8,2.1c0.5,0.5,1.1,0.8,1.9,0.8C531.7,468.2,532.2,468.1,532.8,467.9z"></path>
	<path class="st15" d="M538.6,460.8c1.3,0,2.3,0.4,3.2,1.3c0.8,0.8,1.2,1.9,1.2,3.2c0,1.5-0.4,2.7-1.3,3.5c-0.9,0.8-1.9,1.2-3.2,1.2   c-1.3,0-2.3-0.4-3.2-1.2c-0.8-0.8-1.2-1.9-1.2-3.3c0-1.4,0.4-2.5,1.3-3.4C536.1,461.3,537.2,460.8,538.6,460.8z M538.5,462.4   c-0.7,0-1.3,0.3-1.6,0.9s-0.5,1.3-0.5,2.1c0,0.9,0.2,1.6,0.6,2.1c0.4,0.6,0.9,0.8,1.6,0.8c0.6,0,1.2-0.3,1.5-0.8   c0.4-0.6,0.6-1.3,0.6-2.2c0-0.8-0.2-1.5-0.5-2.1C539.7,462.7,539.2,462.4,538.5,462.4z"></path>
	<path class="st15" d="M544.7,469.8v-6.2c0-0.7,0-1.6-0.1-2.6h1.9l0.1,1.3h0.1c0.2-0.4,0.6-0.8,1.1-1.1c0.5-0.3,1.1-0.5,1.7-0.5   c0.9,0,1.6,0.3,2.2,0.9c0.6,0.6,0.9,1.6,0.9,2.8v5.2h-2.2v-5c0-0.7-0.1-1.2-0.4-1.6c-0.3-0.4-0.7-0.6-1.3-0.6   c-0.4,0-0.8,0.1-1.1,0.4c-0.3,0.3-0.5,0.6-0.6,0.9c-0.1,0.2-0.1,0.4-0.1,0.7v5.2H544.7z"></path>
	<path class="st15" d="M557.5,469.8h-2.2v-7.1h-1.2V461h1.2v-0.4c0-1.2,0.4-2.1,1.1-2.8c0.8-0.7,1.8-1,3.1-1c1,0,1.9,0.2,2.4,0.6   l-0.5,1.7c-0.5-0.3-1.2-0.5-1.9-0.5c-1.4,0-2,0.7-2,2.1v0.4h5.2v8.8h-2.2v-7.1h-3V469.8z"></path>
	<path class="st15" d="M565.1,469.8v-5.9c0-1.2,0-2.1-0.1-2.8h1.9l0.1,1.7h0.1c0.2-0.6,0.5-1,1-1.4c0.4-0.3,0.9-0.5,1.4-0.5   c0.2,0,0.3,0,0.5,0.1v2.1c-0.2,0-0.4-0.1-0.7-0.1c-0.5,0-1,0.2-1.3,0.5s-0.6,0.7-0.7,1.2c0,0.2-0.1,0.4-0.1,0.7v4.6H565.1z"></path>
	<path class="st15" d="M571.5,469.8v-6.2c0-0.7,0-1.6-0.1-2.6h1.9l0.1,1.3h0.1c0.6-1,1.5-1.5,2.7-1.5c0.6,0,1.1,0.1,1.5,0.4   c0.4,0.3,0.7,0.7,0.9,1.2h0c0.3-0.5,0.7-0.8,1.1-1.1c0.5-0.3,1.1-0.5,1.8-0.5c0.8,0,1.5,0.3,2.1,0.9c0.6,0.6,0.8,1.6,0.8,2.9v5.2   h-2.2V465c0-1.5-0.5-2.3-1.6-2.3c-0.4,0-0.7,0.1-1,0.3c-0.3,0.2-0.5,0.5-0.6,0.8c-0.1,0.2-0.1,0.4-0.1,0.7v5.3h-2.2v-5.1   c0-0.6-0.1-1.1-0.4-1.5s-0.6-0.6-1.1-0.6c-0.4,0-0.7,0.1-1,0.4c-0.3,0.2-0.5,0.5-0.6,0.9c-0.1,0.2-0.1,0.5-0.1,0.7v5.2H571.5z"></path>
	<path class="st15" d="M587.9,457.4c0.4,0,0.7,0.1,0.9,0.3c0.2,0.2,0.3,0.5,0.4,0.9c0,0.3-0.1,0.6-0.4,0.8c-0.2,0.2-0.5,0.3-0.9,0.3   c-0.4,0-0.7-0.1-0.9-0.3c-0.2-0.2-0.3-0.5-0.3-0.8c0-0.3,0.1-0.6,0.4-0.9C587.2,457.5,587.5,457.4,587.9,457.4z M589,469.8h-2.2   V461h2.2V469.8z"></path>
	<path class="st15" d="M591.4,469.8v-6.2c0-0.7,0-1.6-0.1-2.6h1.9l0.1,1.3h0.1c0.2-0.4,0.6-0.8,1.1-1.1c0.5-0.3,1.1-0.5,1.7-0.5   c0.9,0,1.6,0.3,2.2,0.9c0.6,0.6,0.9,1.6,0.9,2.8v5.2h-2.2v-5c0-0.7-0.1-1.2-0.4-1.6c-0.3-0.4-0.7-0.6-1.3-0.6   c-0.4,0-0.8,0.1-1.1,0.4c-0.3,0.3-0.5,0.6-0.6,0.9c-0.1,0.2-0.1,0.4-0.1,0.7v5.2H591.4z"></path>
	<path class="st15" d="M609.6,463.6v5c0,1.9-0.4,3.2-1.3,4c-0.8,0.7-1.9,1.1-3.4,1.1c-1.2,0-2.3-0.2-3.1-0.7l0.5-1.7   c0.8,0.4,1.6,0.7,2.6,0.7c0.8,0,1.4-0.2,1.8-0.6s0.7-1.1,0.7-2v-0.8h0c-0.6,0.9-1.4,1.3-2.6,1.3c-1.1,0-2-0.4-2.7-1.2s-1-1.8-1-3.1   c0-1.4,0.4-2.5,1.2-3.4c0.8-0.8,1.7-1.3,2.8-1.3c1.2,0,2,0.5,2.5,1.4h0l0.1-1.2h1.9C609.6,461.8,609.6,462.7,609.6,463.6z    M607.4,466v-1.4c0-0.2,0-0.4-0.1-0.6c-0.1-0.4-0.3-0.8-0.6-1c-0.3-0.3-0.7-0.4-1.2-0.4c-0.6,0-1.2,0.3-1.6,0.8   c-0.4,0.5-0.6,1.2-0.6,2.1c0,0.8,0.2,1.4,0.6,1.9s0.9,0.8,1.6,0.8c0.4,0,0.8-0.1,1.1-0.4c0.3-0.2,0.6-0.6,0.7-1   C607.4,466.6,607.4,466.3,607.4,466z"></path>
	<path class="st15" d="M612.8,470c-0.4,0-0.7-0.1-1-0.4c-0.3-0.3-0.4-0.6-0.4-1s0.1-0.7,0.4-1c0.3-0.3,0.6-0.4,1-0.4   c0.4,0,0.7,0.1,1,0.4c0.3,0.3,0.4,0.6,0.4,1c0,0.4-0.1,0.7-0.4,1C613.5,469.9,613.2,470,612.8,470z"></path>
	<path class="st15" d="M420.5,499.8h-2.4l-3-12.1h2.4l1.2,5.5c0.3,1.5,0.6,2.9,0.8,4.2h0c0.1-0.7,0.4-2.1,0.9-4.2l1.3-5.5h2.3   l1.2,5.6c0.4,1.9,0.6,3.2,0.7,4.1h0c0.2-1,0.4-2.4,0.8-4.2l1.3-5.5h2.2l-3.3,12.1h-2.4l-1.3-5.7c-0.3-1.4-0.5-2.7-0.7-3.9h0   c-0.2,1.3-0.5,2.6-0.8,3.9L420.5,499.8z"></path>
	<path class="st15" d="M438.4,496h-5.9c0,0.8,0.3,1.3,0.8,1.7s1.1,0.6,1.9,0.6c0.9,0,1.7-0.1,2.4-0.4l0.3,1.5   c-0.9,0.4-1.9,0.6-3.1,0.6c-1.4,0-2.5-0.4-3.3-1.2c-0.8-0.8-1.2-1.9-1.2-3.2c0-1.3,0.4-2.4,1.1-3.3c0.8-0.9,1.8-1.4,3.1-1.4   c0.7,0,1.3,0.1,1.8,0.4c0.5,0.3,0.9,0.6,1.2,1c0.3,0.4,0.5,0.9,0.6,1.4c0.1,0.5,0.2,1,0.2,1.5C438.5,495.5,438.5,495.8,438.4,496z    M432.6,494.5h3.9c0-0.5-0.1-1-0.4-1.5c-0.3-0.5-0.8-0.7-1.4-0.7c-0.6,0-1.1,0.2-1.4,0.7C432.8,493.5,432.6,494,432.6,494.5z"></path>
	<path class="st15" d="M444,499.8V487h2.2v12.8H444z"></path>
	<path class="st15" d="M452.6,490.8c1.3,0,2.3,0.4,3.1,1.3c0.8,0.8,1.2,1.9,1.2,3.2c0,1.5-0.4,2.7-1.3,3.5c-0.9,0.8-1.9,1.2-3.2,1.2   c-1.3,0-2.3-0.4-3.1-1.2c-0.8-0.8-1.2-1.9-1.2-3.3c0-1.4,0.4-2.5,1.3-3.4C450.2,491.3,451.3,490.8,452.6,490.8z M452.6,492.4   c-0.7,0-1.3,0.3-1.6,0.9s-0.5,1.3-0.5,2.1c0,0.9,0.2,1.6,0.6,2.1c0.4,0.6,0.9,0.8,1.6,0.8c0.6,0,1.2-0.3,1.5-0.8   c0.4-0.6,0.6-1.3,0.6-2.2c0-0.8-0.2-1.5-0.5-2.1C453.8,492.7,453.3,492.4,452.6,492.4z"></path>
	<path class="st15" d="M462.8,490.8c1.3,0,2.3,0.4,3.1,1.3c0.8,0.8,1.2,1.9,1.2,3.2c0,1.5-0.4,2.7-1.3,3.5c-0.9,0.8-1.9,1.2-3.2,1.2   c-1.3,0-2.3-0.4-3.1-1.2c-0.8-0.8-1.2-1.9-1.2-3.3c0-1.4,0.4-2.5,1.3-3.4C460.3,491.3,461.4,490.8,462.8,490.8z M462.7,492.4   c-0.7,0-1.3,0.3-1.6,0.9s-0.5,1.3-0.5,2.1c0,0.9,0.2,1.6,0.6,2.1c0.4,0.6,0.9,0.8,1.6,0.8c0.6,0,1.2-0.3,1.5-0.8   c0.4-0.6,0.6-1.3,0.6-2.2c0-0.8-0.2-1.5-0.5-2.1C463.9,492.7,463.4,492.4,462.7,492.4z"></path>
	<path class="st15" d="M471.2,487v7.9h0c0.2-0.4,0.5-0.7,0.7-1l2.1-2.8h2.7l-3.3,3.6l3.7,5.2h-2.7l-2.5-3.9l-0.7,0.9v3h-2.2V487   H471.2z"></path>
	<path class="st15" d="M484.3,499.8h-2.2v-7.1h-1.2V491h1.2v-0.4c0-1.3,0.4-2.3,1.1-3c0.6-0.6,1.4-0.8,2.3-0.8   c0.5,0,0.9,0.1,1.4,0.2l-0.1,1.7c-0.3-0.1-0.6-0.2-1-0.2c-1,0-1.5,0.7-1.5,2v0.5h1.9v1.7h-1.9V499.8z"></path>
	<path class="st15" d="M491.4,490.8c1.3,0,2.3,0.4,3.1,1.3c0.8,0.8,1.2,1.9,1.2,3.2c0,1.5-0.4,2.7-1.3,3.5c-0.9,0.8-1.9,1.2-3.2,1.2   c-1.3,0-2.3-0.4-3.1-1.2c-0.8-0.8-1.2-1.9-1.2-3.3c0-1.4,0.4-2.5,1.3-3.4C488.9,491.3,490,490.8,491.4,490.8z M491.3,492.4   c-0.7,0-1.3,0.3-1.6,0.9s-0.5,1.3-0.5,2.1c0,0.9,0.2,1.6,0.6,2.1c0.4,0.6,0.9,0.8,1.6,0.8c0.6,0,1.2-0.3,1.5-0.8   c0.4-0.6,0.6-1.3,0.6-2.2c0-0.8-0.2-1.5-0.5-2.1C492.5,492.7,492,492.4,491.3,492.4z"></path>
	<path class="st15" d="M497.5,499.8v-5.9c0-1.2,0-2.1-0.1-2.8h1.9l0.1,1.7h0.1c0.2-0.6,0.5-1,1-1.4s0.9-0.5,1.4-0.5   c0.2,0,0.3,0,0.5,0.1v2.1c-0.2,0-0.4-0.1-0.7-0.1c-0.5,0-1,0.2-1.3,0.5c-0.4,0.3-0.6,0.7-0.7,1.2c0,0.2-0.1,0.4-0.1,0.7v4.6H497.5z   "></path>
	<path class="st15" d="M503.4,491h2.3l0.9,4c0.2,1,0.4,2,0.6,2.8h0c0.1-0.3,0.3-1.3,0.7-2.8l1.2-4h1.8l1.1,3.9   c0.3,1.1,0.5,2.1,0.7,2.9h0c0.1-0.6,0.3-1.6,0.6-2.9l1-3.9h2.2l-2.8,8.8h-2.1l-1-3.6c-0.3-0.9-0.5-1.8-0.7-2.8h0   c-0.2,0.9-0.4,1.9-0.7,2.8l-1.1,3.6H506L503.4,491z"></path>
	<path class="st15" d="M524.5,494.5v3.2c0,0.9,0,1.6,0.1,2.1h-2l-0.2-1h-0.1c-0.6,0.8-1.5,1.2-2.6,1.2c-0.8,0-1.5-0.3-2-0.8   c-0.5-0.5-0.7-1.1-0.7-1.8c0-1.1,0.5-1.9,1.4-2.5c0.9-0.6,2.2-0.8,3.8-0.8v-0.1c0-0.4-0.1-0.7-0.4-1.1c-0.3-0.3-0.7-0.5-1.4-0.5   c-0.9,0-1.7,0.2-2.4,0.6l-0.4-1.4c0.8-0.5,1.9-0.8,3.2-0.8c1.3,0,2.2,0.3,2.8,1C524.2,492.6,524.5,493.5,524.5,494.5z M522.4,496.7   v-1.2c-2,0-3.1,0.5-3.1,1.6c0,0.4,0.1,0.7,0.4,0.9s0.5,0.3,0.9,0.3c0.4,0,0.8-0.1,1.1-0.4c0.3-0.2,0.5-0.5,0.6-0.9   C522.3,497.1,522.4,496.9,522.4,496.7z"></path>
	<path class="st15" d="M526.9,499.8v-5.9c0-1.2,0-2.1-0.1-2.8h1.9l0.1,1.7h0.1c0.2-0.6,0.5-1,1-1.4c0.4-0.3,0.9-0.5,1.4-0.5   c0.2,0,0.3,0,0.5,0.1v2.1c-0.2,0-0.4-0.1-0.7-0.1c-0.5,0-1,0.2-1.3,0.5s-0.6,0.7-0.7,1.2c0,0.2-0.1,0.4-0.1,0.7v4.6H526.9z"></path>
	<path class="st15" d="M539,487h2.2v10.3c0,0.9,0,1.7,0.1,2.5h-2l-0.1-1.4h0c-0.3,0.5-0.6,0.9-1.2,1.2c-0.5,0.3-1.1,0.4-1.7,0.4   c-1.1,0-2-0.4-2.7-1.2s-1.1-1.9-1.1-3.2c0-1.4,0.4-2.5,1.1-3.4c0.8-0.9,1.7-1.3,2.8-1.3c0.6,0,1.1,0.1,1.5,0.3   c0.4,0.2,0.7,0.5,1,0.8h0V487z M539,496v-1.3c0-0.2,0-0.4-0.1-0.6c-0.1-0.4-0.3-0.8-0.7-1.1s-0.8-0.4-1.2-0.4   c-0.7,0-1.2,0.3-1.6,0.8s-0.6,1.2-0.6,2.1c0,0.8,0.2,1.5,0.6,2c0.4,0.5,0.9,0.8,1.6,0.8c0.5,0,0.9-0.1,1.2-0.4   c0.4-0.3,0.6-0.7,0.7-1.1C538.9,496.5,539,496.3,539,496z"></path>
	<path class="st15" d="M547.6,489.4l2.2-0.6v2.2h2.1v1.7h-2.1v3.9c0,0.6,0.1,1,0.3,1.2c0.2,0.3,0.5,0.4,0.9,0.4c0.4,0,0.6,0,0.9-0.1   l0,1.7c-0.4,0.2-0.9,0.2-1.6,0.2c-0.8,0-1.5-0.2-1.9-0.7c-0.5-0.5-0.7-1.3-0.7-2.5v-4.1h-1.2V491h1.2V489.4z"></path>
	<path class="st15" d="M557.5,490.8c1.3,0,2.3,0.4,3.2,1.3c0.8,0.8,1.2,1.9,1.2,3.2c0,1.5-0.4,2.7-1.3,3.5c-0.9,0.8-1.9,1.2-3.2,1.2   c-1.3,0-2.3-0.4-3.2-1.2c-0.8-0.8-1.2-1.9-1.2-3.3c0-1.4,0.4-2.5,1.3-3.4C555,491.3,556.1,490.8,557.5,490.8z M557.4,492.4   c-0.7,0-1.3,0.3-1.6,0.9s-0.5,1.3-0.5,2.1c0,0.9,0.2,1.6,0.6,2.1c0.4,0.6,0.9,0.8,1.6,0.8c0.6,0,1.2-0.3,1.5-0.8   c0.4-0.6,0.6-1.3,0.6-2.2c0-0.8-0.2-1.5-0.5-2.1C558.6,492.7,558.1,492.4,557.4,492.4z"></path>
	<path class="st15" d="M566.8,499.4l0.4-1.6c0.7,0.4,1.4,0.6,2.2,0.6c0.9,0,1.4-0.3,1.4-1c0-0.3-0.1-0.5-0.3-0.7s-0.6-0.4-1.1-0.6   c-1.6-0.5-2.4-1.4-2.4-2.6c0-0.8,0.3-1.4,0.9-2c0.6-0.5,1.4-0.8,2.4-0.8c0.9,0,1.7,0.2,2.3,0.5l-0.5,1.5c-0.6-0.3-1.2-0.5-1.9-0.5   c-0.4,0-0.7,0.1-0.9,0.3s-0.3,0.4-0.3,0.7c0,0.3,0.1,0.5,0.3,0.6s0.6,0.4,1.2,0.6c0.8,0.3,1.4,0.6,1.8,1.1s0.6,1,0.6,1.6   c0,0.8-0.3,1.5-0.9,2c-0.6,0.5-1.5,0.8-2.6,0.8C568.4,500,567.6,499.8,566.8,499.4z"></path>
	<path class="st15" d="M582.3,496h-5.9c0,0.8,0.3,1.3,0.8,1.7s1.1,0.6,1.9,0.6c0.9,0,1.7-0.1,2.4-0.4l0.3,1.5   c-0.9,0.4-1.9,0.6-3.1,0.6c-1.4,0-2.5-0.4-3.3-1.2s-1.2-1.9-1.2-3.2c0-1.3,0.4-2.4,1.1-3.3c0.8-0.9,1.8-1.4,3.1-1.4   c0.7,0,1.3,0.1,1.8,0.4c0.5,0.3,0.9,0.6,1.2,1c0.3,0.4,0.5,0.9,0.6,1.4s0.2,1,0.2,1.5C582.4,495.5,582.4,495.8,582.3,496z    M576.4,494.5h3.9c0-0.5-0.1-1-0.4-1.5c-0.3-0.5-0.8-0.7-1.4-0.7c-0.6,0-1.1,0.2-1.4,0.7C576.7,493.5,576.5,494,576.4,494.5z"></path>
	<path class="st15" d="M591.6,496h-5.9c0,0.8,0.3,1.3,0.8,1.7s1.1,0.6,1.9,0.6c0.9,0,1.7-0.1,2.4-0.4l0.3,1.5   c-0.9,0.4-1.9,0.6-3.1,0.6c-1.4,0-2.5-0.4-3.3-1.2s-1.2-1.9-1.2-3.2c0-1.3,0.4-2.4,1.1-3.3c0.8-0.9,1.8-1.4,3.1-1.4   c0.7,0,1.3,0.1,1.8,0.4c0.5,0.3,0.9,0.6,1.2,1c0.3,0.4,0.5,0.9,0.6,1.4s0.2,1,0.2,1.5C591.7,495.5,591.6,495.8,591.6,496z    M585.7,494.5h3.9c0-0.5-0.1-1-0.4-1.5c-0.3-0.5-0.8-0.7-1.4-0.7c-0.6,0-1.1,0.2-1.4,0.7C586,493.5,585.8,494,585.7,494.5z"></path>
	<path class="st15" d="M594.6,487.4c0.4,0,0.7,0.1,0.9,0.3c0.2,0.2,0.3,0.5,0.4,0.9c0,0.3-0.1,0.6-0.4,0.8c-0.2,0.2-0.5,0.3-0.9,0.3   c-0.4,0-0.7-0.1-0.9-0.3c-0.2-0.2-0.3-0.5-0.3-0.8c0-0.3,0.1-0.6,0.4-0.9C593.9,487.5,594.2,487.4,594.6,487.4z M595.7,499.8h-2.2   V491h2.2V499.8z"></path>
	<path class="st15" d="M598.1,499.8v-6.2c0-0.7,0-1.6-0.1-2.6h1.9l0.1,1.3h0.1c0.2-0.4,0.6-0.8,1.1-1.1c0.5-0.3,1.1-0.5,1.7-0.5   c0.9,0,1.6,0.3,2.2,0.9c0.6,0.6,0.9,1.6,0.9,2.8v5.2h-2.2v-5c0-0.7-0.1-1.2-0.4-1.6c-0.3-0.4-0.7-0.6-1.3-0.6   c-0.4,0-0.8,0.1-1.1,0.4c-0.3,0.3-0.5,0.6-0.6,0.9c-0.1,0.2-0.1,0.4-0.1,0.7v5.2H598.1z"></path>
	<path class="st15" d="M616.3,493.6v5c0,1.9-0.4,3.2-1.3,4c-0.8,0.7-1.9,1.1-3.4,1.1c-1.2,0-2.3-0.2-3.1-0.7l0.5-1.7   c0.8,0.4,1.6,0.7,2.6,0.7c0.8,0,1.4-0.2,1.8-0.6s0.7-1.1,0.7-2v-0.8h0c-0.6,0.9-1.4,1.3-2.6,1.3c-1.1,0-2-0.4-2.7-1.2s-1-1.8-1-3.1   c0-1.4,0.4-2.5,1.2-3.4c0.8-0.8,1.7-1.3,2.8-1.3c1.2,0,2,0.5,2.5,1.4h0l0.1-1.2h1.9C616.3,491.8,616.3,492.7,616.3,493.6z    M614.1,496v-1.4c0-0.2,0-0.4-0.1-0.6c-0.1-0.4-0.3-0.8-0.6-1c-0.3-0.3-0.7-0.4-1.2-0.4c-0.6,0-1.2,0.3-1.6,0.8   c-0.4,0.5-0.6,1.2-0.6,2.1c0,0.8,0.2,1.4,0.6,1.9s0.9,0.8,1.6,0.8c0.4,0,0.8-0.1,1.1-0.4c0.3-0.2,0.6-0.6,0.7-1   C614,496.6,614.1,496.3,614.1,496z"></path>
	<path class="st15" d="M621.3,491h2.4l1.6,4.7c0.2,0.6,0.4,1.2,0.5,1.7h0.1c0.2-0.9,0.4-1.4,0.5-1.7l1.4-4.7h2.4l-2.2,6   c-0.6,1.6-1.1,2.9-1.6,3.7s-0.9,1.5-1.5,1.9c-0.7,0.6-1.5,1-2.3,1.1l-0.5-1.9c0.4-0.1,0.9-0.3,1.3-0.6c0.5-0.3,0.9-0.8,1.2-1.4   c0.1-0.2,0.1-0.3,0.1-0.4c0-0.1,0-0.3-0.1-0.4L621.3,491z"></path>
	<path class="st15" d="M635.1,490.8c1.3,0,2.3,0.4,3.2,1.3c0.8,0.8,1.2,1.9,1.2,3.2c0,1.5-0.4,2.7-1.3,3.5c-0.9,0.8-1.9,1.2-3.2,1.2   c-1.3,0-2.3-0.4-3.2-1.2c-0.8-0.8-1.2-1.9-1.2-3.3c0-1.4,0.4-2.5,1.3-3.4C632.7,491.3,633.8,490.8,635.1,490.8z M635.1,492.4   c-0.7,0-1.3,0.3-1.6,0.9s-0.5,1.3-0.5,2.1c0,0.9,0.2,1.6,0.6,2.1c0.4,0.6,0.9,0.8,1.6,0.8c0.6,0,1.2-0.3,1.5-0.8   c0.4-0.6,0.6-1.3,0.6-2.2c0-0.8-0.2-1.5-0.5-2.1C636.3,492.7,635.8,492.4,635.1,492.4z"></path>
	<path class="st15" d="M649.2,491v6.1c0,0.8,0,1.7,0.1,2.6h-1.9l-0.1-1.3h-0.1c-0.6,1-1.6,1.5-2.8,1.5c-0.9,0-1.6-0.3-2.2-0.9   c-0.6-0.6-0.9-1.6-0.9-2.9V491h2.2v4.8c0,1.6,0.5,2.4,1.6,2.4c0.4,0,0.8-0.1,1.1-0.4c0.3-0.2,0.5-0.5,0.6-0.8   c0.1-0.2,0.1-0.4,0.1-0.7V491H649.2z"></path>
	<path class="st15" d="M652.6,500c-0.4,0-0.7-0.1-1-0.4c-0.3-0.3-0.4-0.6-0.4-1c0-0.4,0.1-0.8,0.4-1s0.6-0.4,1-0.4s0.7,0.1,1,0.4   c0.2,0.3,0.4,0.6,0.4,1c0,0.4-0.1,0.7-0.4,1C653.4,499.9,653,500,652.6,500z M653.5,496.1h-1.7l-0.3-8.4h2.3L653.5,496.1z"></path>
	<path class="st15" d="M415.4,524.2h4.6v1.5h-4.6V524.2z"></path>
	<path class="st15" d="M427.1,529.8v-10.3h-3.5v-1.9h9.2v1.9h-3.5v10.3H427.1z"></path>
	<path class="st15" d="M434,529.8V517h2.2v5.2h0c0.3-0.4,0.6-0.7,1.1-1c0.5-0.3,1-0.4,1.5-0.4c0.9,0,1.6,0.3,2.2,0.9   c0.6,0.6,0.9,1.6,0.9,2.9v5.2h-2.2v-4.9c0-0.7-0.1-1.2-0.4-1.6c-0.3-0.4-0.7-0.6-1.3-0.6c-0.4,0-0.8,0.1-1.1,0.4   c-0.3,0.2-0.5,0.5-0.7,0.9c-0.1,0.2-0.1,0.4-0.1,0.7v5.3H434z"></path>
	<path class="st15" d="M451.7,526h-5.9c0,0.8,0.3,1.3,0.8,1.7s1.1,0.6,1.9,0.6c0.9,0,1.7-0.1,2.4-0.4l0.3,1.5   c-0.9,0.4-1.9,0.6-3.1,0.6c-1.4,0-2.5-0.4-3.3-1.2c-0.8-0.8-1.2-1.9-1.2-3.2c0-1.3,0.4-2.4,1.1-3.3c0.8-0.9,1.8-1.4,3.1-1.4   c0.7,0,1.3,0.1,1.8,0.4c0.5,0.3,0.9,0.6,1.2,1c0.3,0.4,0.5,0.9,0.6,1.4c0.1,0.5,0.2,1,0.2,1.5C451.8,525.5,451.8,525.8,451.7,526z    M445.9,524.5h3.9c0-0.5-0.1-1-0.4-1.5c-0.3-0.5-0.8-0.7-1.4-0.7c-0.6,0-1.1,0.2-1.4,0.7C446.1,523.5,445.9,524,445.9,524.5z"></path>
	<path class="st15" d="M465.7,527.7l0.4,1.7c-0.7,0.4-1.8,0.5-3.2,0.5c-1.9,0-3.4-0.6-4.5-1.7c-1.1-1.1-1.7-2.6-1.7-4.5   c0-2,0.6-3.5,1.8-4.7c1.2-1.2,2.8-1.7,4.7-1.7c1.3,0,2.2,0.2,2.9,0.5l-0.5,1.8c-0.7-0.3-1.5-0.5-2.4-0.5c-1.3,0-2.3,0.4-3.1,1.2   c-0.8,0.8-1.2,1.9-1.2,3.3c0,1.4,0.4,2.4,1.1,3.2c0.7,0.8,1.8,1.2,3.1,1.2C464.2,528.1,465,528,465.7,527.7z"></path>
	<path class="st15" d="M471.6,520.8c1.3,0,2.3,0.4,3.1,1.3c0.8,0.8,1.2,1.9,1.2,3.2c0,1.5-0.4,2.7-1.3,3.5c-0.9,0.8-1.9,1.2-3.2,1.2   c-1.3,0-2.3-0.4-3.1-1.2c-0.8-0.8-1.2-1.9-1.2-3.3c0-1.4,0.4-2.5,1.3-3.4C469.1,521.3,470.2,520.8,471.6,520.8z M471.5,522.4   c-0.7,0-1.3,0.3-1.6,0.9s-0.5,1.3-0.5,2.1c0,0.9,0.2,1.6,0.6,2.1c0.4,0.6,0.9,0.8,1.6,0.8c0.6,0,1.2-0.3,1.5-0.8   c0.4-0.6,0.6-1.3,0.6-2.2c0-0.8-0.2-1.5-0.5-2.1C472.7,522.7,472.2,522.4,471.5,522.4z"></path>
	<path class="st15" d="M481,529.2l0.5-1.8c0.9,0.5,1.9,0.8,2.9,0.8c0.7,0,1.2-0.2,1.6-0.5c0.4-0.3,0.6-0.7,0.6-1.2   c0-0.5-0.2-0.8-0.5-1.1s-0.9-0.6-1.6-0.9c-2.2-0.8-3.3-2-3.3-3.5c0-1,0.4-1.9,1.2-2.5c0.8-0.7,1.8-1,3.1-1c1.1,0,2.1,0.2,2.9,0.6   l-0.5,1.8c-0.7-0.4-1.6-0.6-2.4-0.6c-0.7,0-1.2,0.1-1.5,0.4s-0.5,0.6-0.5,1c0,0.4,0.2,0.8,0.5,1.1c0.3,0.3,0.9,0.6,1.8,0.9   c1.1,0.4,1.9,0.9,2.4,1.5c0.5,0.6,0.8,1.3,0.8,2.1c0,1-0.4,1.9-1.2,2.6s-1.9,1-3.4,1c-0.6,0-1.2-0.1-1.9-0.2   C481.9,529.6,481.4,529.4,481,529.2z"></path>
	<path class="st15" d="M497.7,524.5v3.2c0,0.9,0,1.6,0.1,2.1h-2l-0.2-1h-0.1c-0.6,0.8-1.5,1.2-2.6,1.2c-0.8,0-1.5-0.3-2-0.8   c-0.5-0.5-0.7-1.1-0.7-1.8c0-1.1,0.5-1.9,1.4-2.5s2.2-0.8,3.8-0.8v-0.1c0-0.4-0.1-0.7-0.4-1.1c-0.3-0.3-0.7-0.5-1.4-0.5   c-0.9,0-1.7,0.2-2.4,0.6l-0.4-1.4c0.8-0.5,1.9-0.8,3.2-0.8c1.3,0,2.2,0.3,2.8,1C497.4,522.6,497.7,523.5,497.7,524.5z M495.6,526.7   v-1.2c-2,0-3.1,0.5-3.1,1.6c0,0.4,0.1,0.7,0.4,0.9s0.5,0.3,0.9,0.3c0.4,0,0.8-0.1,1.1-0.4c0.3-0.2,0.5-0.5,0.6-0.9   C495.5,527.1,495.6,526.9,495.6,526.7z"></path>
	<path class="st15" d="M500.1,529.8V517h2.2v12.8H500.1z"></path>
	<path class="st15" d="M508.7,520.8c1.3,0,2.3,0.4,3.2,1.3c0.8,0.8,1.2,1.9,1.2,3.2c0,1.5-0.4,2.7-1.3,3.5c-0.9,0.8-1.9,1.2-3.2,1.2   c-1.3,0-2.3-0.4-3.2-1.2c-0.8-0.8-1.2-1.9-1.2-3.3c0-1.4,0.4-2.5,1.3-3.4C506.2,521.3,507.3,520.8,508.7,520.8z M508.6,522.4   c-0.7,0-1.3,0.3-1.6,0.9s-0.5,1.3-0.5,2.1c0,0.9,0.2,1.6,0.6,2.1c0.4,0.6,0.9,0.8,1.6,0.8c0.6,0,1.2-0.3,1.5-0.8   c0.4-0.6,0.6-1.3,0.6-2.2c0-0.8-0.2-1.5-0.5-2.1C509.8,522.7,509.3,522.4,508.6,522.4z"></path>
	<path class="st15" d="M514.8,529.8v-6.2c0-0.7,0-1.6-0.1-2.6h1.9l0.1,1.3h0.1c0.2-0.4,0.6-0.8,1.1-1.1c0.5-0.3,1.1-0.5,1.7-0.5   c0.9,0,1.6,0.3,2.2,0.9c0.6,0.6,0.9,1.6,0.9,2.8v5.2h-2.2v-5c0-0.7-0.1-1.2-0.4-1.6c-0.3-0.4-0.7-0.6-1.3-0.6   c-0.4,0-0.8,0.1-1.1,0.4c-0.3,0.3-0.5,0.6-0.6,0.9c-0.1,0.2-0.1,0.4-0.1,0.7v5.2H514.8z"></path>
	<path class="st15" d="M530.6,529.8v-10.3h-3.5v-1.9h9.2v1.9h-3.5v10.3H530.6z"></path>
	<path class="st15" d="M543.6,526h-5.9c0,0.8,0.3,1.3,0.8,1.7s1.1,0.6,1.9,0.6c0.9,0,1.7-0.1,2.4-0.4l0.3,1.5   c-0.9,0.4-1.9,0.6-3.1,0.6c-1.4,0-2.5-0.4-3.3-1.2s-1.2-1.9-1.2-3.2c0-1.3,0.4-2.4,1.1-3.3c0.8-0.9,1.8-1.4,3.1-1.4   c0.7,0,1.3,0.1,1.8,0.4c0.5,0.3,0.9,0.6,1.2,1c0.3,0.4,0.5,0.9,0.6,1.4s0.2,1,0.2,1.5C543.7,525.5,543.7,525.8,543.6,526z    M537.8,524.5h3.9c0-0.5-0.1-1-0.4-1.5c-0.3-0.5-0.8-0.7-1.4-0.7c-0.6,0-1.1,0.2-1.4,0.7C538,523.5,537.8,524,537.8,524.5z"></path>
	<path class="st15" d="M552.3,524.5v3.2c0,0.9,0,1.6,0.1,2.1h-2l-0.2-1h-0.1c-0.6,0.8-1.5,1.2-2.6,1.2c-0.8,0-1.5-0.3-2-0.8   c-0.5-0.5-0.7-1.1-0.7-1.8c0-1.1,0.5-1.9,1.4-2.5c0.9-0.6,2.2-0.8,3.8-0.8v-0.1c0-0.4-0.1-0.7-0.4-1.1c-0.3-0.3-0.7-0.5-1.4-0.5   c-0.9,0-1.7,0.2-2.4,0.6l-0.4-1.4c0.8-0.5,1.9-0.8,3.2-0.8c1.3,0,2.2,0.3,2.8,1C552,522.6,552.3,523.5,552.3,524.5z M550.1,526.7   v-1.2c-2,0-3.1,0.5-3.1,1.6c0,0.4,0.1,0.7,0.4,0.9s0.5,0.3,0.9,0.3c0.4,0,0.8-0.1,1.1-0.4c0.3-0.2,0.5-0.5,0.6-0.9   C550.1,527.1,550.1,526.9,550.1,526.7z"></path>
	<path class="st15" d="M554.6,529.8v-6.2c0-0.7,0-1.6-0.1-2.6h1.9l0.1,1.3h0.1c0.6-1,1.5-1.5,2.7-1.5c0.6,0,1.1,0.1,1.5,0.4   c0.4,0.3,0.7,0.7,0.9,1.2h0c0.3-0.5,0.7-0.8,1.1-1.1c0.5-0.3,1.1-0.5,1.8-0.5c0.8,0,1.5,0.3,2.1,0.9c0.6,0.6,0.8,1.6,0.8,2.9v5.2   h-2.2V525c0-1.5-0.5-2.3-1.6-2.3c-0.4,0-0.7,0.1-1,0.3c-0.3,0.2-0.5,0.5-0.6,0.8c-0.1,0.2-0.1,0.4-0.1,0.7v5.3H560v-5.1   c0-0.6-0.1-1.1-0.4-1.5s-0.6-0.6-1.1-0.6c-0.4,0-0.7,0.1-1,0.4c-0.3,0.2-0.5,0.5-0.6,0.9c-0.1,0.2-0.1,0.5-0.1,0.7v5.2H554.6z"></path>
</g>
<g>
	<path class="st5" d="M431.6,421.3l-142.3,0c-4.9,0-8.7-4-8.7-8.7v-8.1l-15.9-16.1l15.9-15.9v-8c0-4.9,4-8.7,8.7-8.7h142.5   c4.9,0,8.7,4,8.7,8.7v48C440.5,417.3,436.5,421.2,431.6,421.3z"></path>
	<path class="st12" d="M431.6,421.3l-142.3,0c-4.9,0-8.7-4-8.7-8.7v-8.1l-15.9-16.1l15.9-15.9v-8c0-4.9,4-8.7,8.7-8.7h142.5   c4.9,0,8.7,4,8.7,8.7v48C440.5,417.3,436.5,421.2,431.6,421.3z"></path>
</g>
<g>
	<path class="st15" d="M305.7,393.8h-2.2v-5.1l-3.8-7.1h2.5l1.4,3.1c0.4,0.9,0.8,1.7,1.1,2.4h0c0.2-0.6,0.6-1.4,1-2.4l1.5-3.1h2.5   l-4,7V393.8z"></path>
	<path class="st15" d="M317.6,386.7v1.8H313v3.6h5.1v1.8h-7.3v-12.1h7.1v1.8H313v3.1H317.6z"></path>
	<path class="st15" d="M319.5,393.3l0.5-1.8c0.9,0.5,1.9,0.8,2.9,0.8c0.7,0,1.2-0.2,1.6-0.5c0.4-0.3,0.6-0.7,0.6-1.2   c0-0.5-0.2-0.8-0.5-1.1s-0.9-0.6-1.6-0.9c-2.2-0.8-3.3-2-3.3-3.5c0-1,0.4-1.9,1.2-2.5c0.8-0.7,1.8-1,3.1-1c1.1,0,2.1,0.2,2.9,0.6   l-0.5,1.8c-0.7-0.4-1.6-0.6-2.4-0.6c-0.7,0-1.2,0.1-1.5,0.4s-0.5,0.6-0.5,1c0,0.4,0.2,0.8,0.5,1.1c0.3,0.3,0.9,0.6,1.8,0.9   c1.1,0.4,1.9,0.9,2.4,1.5c0.5,0.6,0.8,1.3,0.8,2.1c0,1-0.4,1.9-1.2,2.6s-1.9,1-3.4,1c-0.6,0-1.2-0.1-1.9-0.2   C320.4,393.7,319.9,393.5,319.5,393.3z"></path>
</g>
<g>
	<circle class="st16" cx="207.1" cy="388.6" r="41.4"></circle>
</g>
<g>
	<path class="st0" d="M207.1,366.1c-12.4,0-22.4,10.1-22.4,22.4v15.9c0,0.2,0.1,0.4,0.2,0.5c0.2,0.2,6.2,6,22.2,6s22-5.8,22.2-6   c0.1-0.1,0.2-0.3,0.2-0.5v-15.9C229.6,376.2,219.5,366.1,207.1,366.1z M207.1,405.2c-9.2,0-16.6-7.5-16.6-16.6   c0-2.3,0.5-4.5,1.3-6.6c0.1-0.3,0.5-0.5,0.8-0.4c1.4,0.3,2.9,0.5,4.4,0.5c6.5,0,12.6-3,16.6-8.2c0.2-0.3,0.6-0.4,0.9-0.2   c5.7,2.8,9.3,8.5,9.3,14.9C223.8,397.7,216.3,405.2,207.1,405.2z"></path>
	<circle class="st0" cx="199.9" cy="390" r="2.2"></circle>
	<circle class="st0" cx="214.4" cy="390" r="2.2"></circle>
</g>
<g>
	<path class="st0" d="M779.6,148.6v-5.2c0-0.8-0.7-1.5-1.5-1.5h-31.3c-0.8,0-1.5,0.7-1.5,1.5v5.2H779.6z"></path>
	<path class="st0" d="M785.4,157.1l-5.6-7h-34.7l-5.6,7c-0.1,0.1-0.2,0.3-0.2,0.5c0,3.3,2.7,6,6,6c1.5,0,3-0.6,4.1-1.6   c1.1,1,2.6,1.6,4.1,1.6c1.7,0,3.4-0.7,4.5-2c1.1,1.3,2.7,2,4.5,2c1.7,0,3.4-0.7,4.5-2c1.1,1.3,2.7,2,4.5,2c1.5,0,3-0.6,4.1-1.6   c1.1,1,2.6,1.6,4.1,1.6c3.3,0,6-2.7,6-6C785.6,157.4,785.5,157.3,785.4,157.1z"></path>
	<path class="st0" d="M779.6,165c-1.5,0-2.9-0.4-4.1-1.2c-1.2,0.8-2.6,1.2-4.1,1.2c-1.6,0-3.2-0.5-4.5-1.5c-1.3,1-2.8,1.5-4.5,1.5   c-1.6,0-3.2-0.5-4.5-1.5c-1.3,1-2.8,1.5-4.5,1.5c-1.5,0-2.9-0.4-4.1-1.2c-1.2,0.8-2.6,1.2-4.1,1.2c-0.5,0-1-0.1-1.5-0.2v20.3   c0,0.8,0.7,1.5,1.5,1.5h20.1c0.4,0,0.7-0.3,0.7-0.7V174h7.5v11.9c0,0.4,0.3,0.7,0.7,0.7h5.2c0.8,0,1.5-0.7,1.5-1.5v-20.3   C780.6,165,780.1,165,779.6,165z M758,177c0,0.4-0.3,0.7-0.7,0.7h-6c-0.4,0-0.7-0.3-0.7-0.7v-6c0-0.4,0.3-0.7,0.7-0.7h6   c0.4,0,0.7,0.3,0.7,0.7V177z"></path>
</g>
<g>
	<circle class="st13" cx="762.5" cy="485.3" r="41.4"></circle>
</g>
<g>
	<path class="st0" d="M779.6,469.6v-5.2c0-0.8-0.7-1.5-1.5-1.5h-31.3c-0.8,0-1.5,0.7-1.5,1.5v5.2H779.6z"></path>
	<path class="st0" d="M785.4,478.1l-5.6-7h-34.7l-5.6,7c-0.1,0.1-0.2,0.3-0.2,0.5c0,3.3,2.7,6,6,6c1.5,0,3-0.6,4.1-1.6   c1.1,1,2.6,1.6,4.1,1.6c1.7,0,3.4-0.7,4.5-2c1.1,1.3,2.7,2,4.5,2c1.7,0,3.4-0.7,4.5-2c1.1,1.3,2.7,2,4.5,2c1.5,0,3-0.6,4.1-1.6   c1.1,1,2.6,1.6,4.1,1.6c3.3,0,6-2.7,6-6C785.6,478.4,785.5,478.3,785.4,478.1z"></path>
	<path class="st0" d="M779.6,486c-1.5,0-2.9-0.4-4.1-1.2c-1.2,0.8-2.6,1.2-4.1,1.2c-1.6,0-3.2-0.5-4.5-1.5c-1.3,1-2.8,1.5-4.5,1.5   c-1.6,0-3.2-0.5-4.5-1.5c-1.3,1-2.8,1.5-4.5,1.5c-1.5,0-2.9-0.4-4.1-1.2c-1.2,0.8-2.6,1.2-4.1,1.2c-0.5,0-1-0.1-1.5-0.2v20.3   c0,0.8,0.7,1.5,1.5,1.5h20.1c0.4,0,0.7-0.3,0.7-0.7V495h7.5v11.9c0,0.4,0.3,0.7,0.7,0.7h5.2c0.8,0,1.5-0.7,1.5-1.5v-20.3   C780.6,486,780.1,486,779.6,486z M758,498c0,0.4-0.3,0.7-0.7,0.7h-6c-0.4,0-0.7-0.3-0.7-0.7v-6c0-0.4,0.3-0.7,0.7-0.7h6   c0.4,0,0.7,0.3,0.7,0.7V498z"></path>
</g>
</svg>
